<?xml version="1.0" encoding="UTF-8"?><svg id="a" xmlns="http://www.w3.org/2000/svg" viewBox="0 0 271.09 254.41"><defs><style>.b{fill:#272727;}.c{fill:#292828;}</style></defs><path class="b" d="M0,32.66C6.29,16.59,16.82,4.79,34.6,1.93c63.96,3.84,135.01-5.65,198.15-.21,21.15,1.82,35.71,17.76,37.27,38.59,3.38,45.19-2.55,94.65-.18,140.29.21,14.7-27.11,43.15-38.43,24.57-9.75-16,12.91-18.52,11.89-32.82-3.44-41,4.42-89.03-.05-129.18-.88-7.95-3.79-13.05-12.05-14.64l-189.8-.16c-10.35.24-13.87,6.8-14.75,16.16-3.8,40.47,3,86.73,0,127.83.36,10.66,6.14,15.05,16.24,16.07,22.18,2.24,47.46-1.87,69.98.32,12.06,2.7,11.45,23.9-4.01,26.28-13.71,2.11-56.85,1.41-71.23-.3-18.67-2.23-32.17-14.18-37.65-31.89V32.66Z"/><path class="b" d="M50.21,55.41l167.05-.33c13.71,1.62,16.57,19.03,4.53,25.63-55.58,2.46-111.83.38-167.66,1.06-15.89-.89-18.67-20.72-3.92-26.37Z"/><path class="c" d="M44.08,117.77c-7.44-7.44-3.25-21.09,7.57-23.03,7.14-1.28,38.81-1.4,45.74,0,14.02,2.81,14.62,23.99.24,26.26-8.3,1.31-37.75,1.19-46.38.14-2.65-.32-5.32-1.5-7.18-3.36Z"/><path class="c" d="M90.9,138.41c6.98,6.98,3.63,20.38-6.44,22.76-5.91,1.4-26.68,1.37-32.81.27-14.6-2.62-14.05-23.41-2.8-25.96,5.55-1.26,28.72-1.18,34.86-.44,2.65.32,5.32,1.5,7.18,3.36Z"/><path class="c" d="M206.69,254.41h-8.44c-4.89-2.3-19.18-15.51-23.21-15.38-3.82.13-17.34,12.97-21.78,15.38h-9.84c-3.05-2.82-7.14-4.99-8.14-9.42-3.67-16.29,2.75-43.27-.36-59.99-1.6-8.61-13.08-17.65-13.99-33.79-4.18-74.17,116.33-75.93,108.25,4.24-1.39,13.82-11.41,21.83-12.61,28.11-3.12,16.32,2.51,41.63-.12,58.83-.99,6.48-4.78,8.78-9.75,12.02ZM202.11,148.04c0-14.68-11.92-26.58-26.63-26.58s-26.63,11.9-26.63,26.58,11.92,26.58,26.63,26.58,26.63-11.9,26.63-26.58ZM188.4,199.68c-8.68,2.43-17.91,1.73-26.7,0v14.02c3.69.16,4.96-3.89,8.35-4.98,7.98-2.56,11.98,1.31,18.35,4.98v-14.03Z"/></svg>