<?xml version="1.0" encoding="UTF-8"?><svg id="uuid-02596936-c54c-4296-92d1-917b725e7491" xmlns="http://www.w3.org/2000/svg" viewBox="0 0 2387.87 3896.33"><defs><style>.uuid-61b971df-a0b6-47fb-aa75-07cc79729cd3{fill:#d2c0dc;}</style></defs><path class="uuid-61b971df-a0b6-47fb-aa75-07cc79729cd3" d="M1104.59,829.87l-.12.07.16-.04-.03-.03Z"/><path class="uuid-61b971df-a0b6-47fb-aa75-07cc79729cd3" d="M2345.46,1151.44c-15.45-.45-31.38-.42-46.83,0l-87.14-10.28c-77.18-9.92-144.69-51.49-219.59-68.7-1.64-.67-2.86-.96-3.73-.87-18.28-4.27-35.52-8.51-54.83-8.7-4.63-.1-9.41-.26-14.04,0-.45.03-5.01,1.93-9.35,2.38-4.5.48-9.76-.67-14.04,0-3.56.55-11.4,3.79-16.41,4.78-3.31.67-5.49,2.06-7,2.41-7.81,1.73-15.64,2.47-23.41,4.79-9.57,2.83-18.76,6.04-28.1,9.57-16.22,6.1-29.81,14.2-44.52,21.55-17.57,8.8-32.05,16.28-49.14,26.3-8.86,5.2-17.5,11.72-25.76,16.77-9.28,5.65-18.82,11.02-28.1,16.77-5.75,3.56-11.11,8.61-16.38,11.95-10.09,6.36-20.33,12.88-30.45,19.17-6.26,3.89-12.53,8.19-18.73,11.95-11.47,7-26.21,10.6-35.14,21.55-4.24,1-7.42,3.98-11.69,4.78,2.99-13.42,19.01-43.23,25.76-57.46,5.3-11.15,10.79-22.48,16.38-33.5,6.58-13.01,14.1-25.53,21.07-38.29,5.85-5.07,11.08-16.16,14.04-19.14,6.13-6.1,20.94-18.47,28.1-23.96,6.52-5.01,14.1-10.09,21.1-14.36l3.79,1.41c9.76-5.52,19.4-10.79,28.97-15.77,39.6-30.51,66.42-39.47,96-86.17,25.25-39.83,48.24-105.8,51.52-153.21l2.31-21.55c3.92-16.28,3.92-38.74,0-55.02-.03-6.01,1.86-15.19-2.31-19.18-2.22-33.69-18.69-66.16-21.1-95.75-.42-2.47-1.99-6.46-4.66-11.95-2.47-47.09-3.24-94.14-2.34-141.26,1.83-2.18,3.37-4.59,4.69-7.16.26-22.39,11.5-57.78-21.04-61.28-6.55-.67-8.09.19-13.91,2.99-24.57,11.79-43.62,80.52-54.02,106.18-11.79,28.97-22.29,57.75-37.06,85.37-42.04,78.43-121.06,151.31-126.97,243.62-2.96,46.25,8.48,91.73,9.48,137.76,5.07,31.06-1.16,59.52-4.53,89.58v.03c-.06.45-.1.9-.16,1.35-.45,4.11-2.15,8.54-2.31,11.98-.84.74-1.57,1.54-2.38,2.38-.77,16.93-7.87,34.59-14.04,50.27-4.11,10.47-9.76,20.49-14.04,31.12-12.14,30.19-23.64,60.74-35.14,90.96-4.5,11.82-14.71,26.95-16.38,40.69-6.91,15.68-15.87,38.64-22.93,67.42-.16-.03-.35,0-.55,0-3.44,17.22-6.65,35.01-14.39,51-2.89,1.96-67.48-1.93-69.89-4.5,8.03-49.98.16-101.3-5.81-151.21-1.51-.9-2.92-1.41-4.14-1.51-1.12-31.86-1.93-60.29-2.54-84.79,0,0-3.79-132.43.48-241.92.9-23.32,2.15-45.64,3.92-65.39-6.07-20.43-11.92-40.92-17.6-61.44-4.79-17.06-9.41-34.14-14-51.29-1.25-4.79-3.24-9.22-6.04-13.3,1.57-15.26-1.19-31.57-7.97-45.41,3.37,1.93,5.3-.35,5.69-7.03,5.33.55,7.55-8.64,3.24-11.37,4.95.99,6.91-3.89,3.4-7.61,1.83-6.07,2.7-14.58,5.04-22,13.59-8.48,23.32-23.74,40.5-33.98,2.73-1.7,7.77-2.95,7.97-6.39,4.34-2.47,8.74-5.17,13.2-7.36,2.96,1.35,6.17-1.32,9.06-3.12.67-.32,1.35-.71,2.02-1.09,14.45-5.59,29.49-9.15,44.39-13.17.19-.06.42-.1.64-.16,8.25-2.15,17.92-2.89,26.88-5.53,14.26-4.24,31.38-9.67,44.26-16.93,2.54,1.61,5.75-1.38,8.13-2.6,7.48,1.73,19.72-3.63,22.77-10.76,2.99,1.57,6.84-1.96,9.6-3.4,1,1.16,1.48.83,1.45-.84,12.2-6.62,24.76-13.2,36.65-20.33,14.13-.74,27.46-13.59,36.42-24.06,2.41-.74,5.33-1.99,5.04-4.75l3.73-.16c1.22-1.25,2.34-2.67,3.6-3.95,31.25-32.21,51.58-58.14,78.4-93.4.93-1.22,2.41-2.38,3.6-3.89.77-1,1.32-2.12,2.09-3.08,1.73-1.25,3.5-3.34,2.79-5.39,2.25-.13,3.85-1.7,3.57-3.89,13.17-15.9,25.73-26.98,42.56-38.96,10.37-7.42,29.26-11.79,20.88-29.9-8.45-18.08-23.19-6.78-35.01-.64-9.83,5.07-19.75,10.63-29.29,16.25l-57.97,23.99c-51.65,20.75-108.02,18.79-160.69,34.27-1.28.19-2.12.42-2.63.77-12.91,3.76-25.12,7.16-37.23,13.71-2.96,1.57-5.97,3.11-8.8,4.91-.29.13-2.47,2.92-5.01,4.69-2.67,1.86-6.36,2.96-8.8,4.85-2.02,1.64-5.85,6.3-8.64,8.67-1.83,1.57-2.73,3.15-3.56,3.89-4.27,3.76-8.93,6.94-13.04,11.11-5.01,5.01-9.6,10.21-14.29,15.58-8.09,9.38-13.81,19.08-20.52,28.65-7.97,11.5-14.52,21.13-21.78,33.21-3.73,6.3-6.97,13.26-10.41,19.18-3.89,6.74-8.03,13.33-11.85,20.07-2.38,4.21-4.01,9.12-6.2,12.97-4.18,7.42-8.35,15-12.49,22.36-2.63,4.56-5.04,9.35-7.64,13.81-4.82,8.25-12.82,15.61-14.71,25.37-2.28,2.12-3.21,5.07-5.62,7.03-2.7-9.25-2.86-33.11-3.47-44.13-.48-8.67-.87-17.54-1.12-26.21-.32-10.21.13-20.52.13-30.77,1.96-5.11,1.45-13.71,2.31-16.57,1.7-5.91,6.78-18.57,9.38-24.44,2.41-5.3,5.43-11.05,8.32-16.12l2.89-.42c4.21-6.81,8.45-13.36,12.72-19.79,14.42-32.41,28.1-47.21,30.74-86.05,2.22-33.18-5.85-81.55-19.91-111.74l-5.85-13.97c-3.12-11.34-10.76-25.05-18.72-33.69-2.12-3.63-4.05-9.89-8-10.92-12.82-19.88-34.17-34.01-45.77-51.26-1.12-1.38-3.4-3.28-6.97-5.72-17.57-27.94-34.05-56.5-49.49-85.66.35-1.96.55-3.95.48-5.97-7.45-13.78-12.46-39.38-34.01-30.19-4.3,1.83-5.01,2.92-7.64,6.65-11.4,15.74.06,64.43,2.28,83.77,2.5,21.84,5.72,43.07,5.91,65.17.35,62.6-24.25,134.67,3.44,193.23,13.91,29.32,36.52,53.19,52.77,81,13.71,17.25,19.53,36.87,27.65,56.43v.03c.13.29.26.58.35.84,1.12,2.7,1.57,6,2.63,8.19-.23.71-.45,1.48-.64,2.22,5.23,10.63,6.81,23.96,8.32,35.68.96,7.84.84,15.93,1.8,23.93,2.63,22.71,5.88,45.42,8.96,67.87,1.19,8.8,0,21.62,3.6,30.61,1.51,17.15,5.91,33.79,8.96,50.65,9.54,52.68,21.78,98.32,38.03,147.36-2.44,18.12-5.72,37.16-6.71,50.14-5.33,70.82-1.12,145.92-1.06,217.41.03,9.96-.61,18.28.45,28.59-2.41,2.99-1.38,11.21-.58,15.16l-2.38.55c-5.36-17.02-35.11-71.21-49.82-76.31-1.19-.45-2.51-.64-3.82-.8-6.36-10.28-17.02-23.32-28.81-26.43-2.7-6.84-8.93-9.51-12.85-14.2-8.32-10.05-15.77-20.75-22.52-31.93-3.4-5.75-8.8-13.65-11.47-19.34-2.6-5.52-10.7-25.34-11.95-30.61-1.32-5.65-1.06-11.47-1.64-17.15-.29-4.72-4.18-6.78-5.78-9.64-.74-1.38-3.37-5.72-3.12-6.52.8-2.18,8.58-9.19,10.82-12.69,2.73-4.27,3.34-7.71,5.14-11.98,11.82-28.36,19.72-67.35,28.04-97.9,2.09-.9,2.47-3.27,1.32-5.14l1.83,1.57c.32-2.31,2.63-5.11,1-8.48,2.95-10.92,5.69-20.27,6.04-32.41,6.3-31.54,1.8-60.58-13.65-88.52-1.32-2.38-1.93-5.04-5.07-5.91-.19-2.15-1.7-3.56-2.02-4.88-6.13-5.91-15.35-16.96-18.69-24.57-3.4-7.81-3.34-16.8-5.49-24.44-5.3-18.47-14.36-30.55-29.48-41.14,3.82-6.2-7.64-9.99-13.01-11.76-18.15-5.97-32.22,3.53-43.42,16.41-7.16-4.91-14.71-7.32-22.71-7.23-4.3-1.83-5.91-2.83-4.79-3.08-15.03.32-22.32,6.42-32.7,7.61-5.27.61-9.19-2.18-13.78-2.34-11.37-.45-20.62,7.64-28.07,15.38-2.18,5.62-5.72,10.89-10.57,15.93-3.85-.55-6.78,2.12-8.7,7.93-3.73.19-6.13,1.29-7.29,3.34-.35-.06-.67-.16-1.06-.29-.03,0-.06-.03-.13-.06-1.99-.77-3.89-2.12-6.65-2.34-10.37-.71-21.01,1.57-28.65,8.74-4.24-1.57-7.48,1.22-9.7,8.41-2.57,16.73-12.46,21.55-27.59,25.47-7.29,2.5-12.75,6.55-16.48,12.08l-6.26,5.53c-23.83,34.53-16.09,55.12-18.44,94.46-.22,4.21-1.93,8.06-2.25,12.94-1.45,2.7-2.31,5.56-1.03,8.48-12.24,43.04,7.07,91.19,46.93,112.51,2.09,2.51,4.53,5.11,7.29,7.87-1.57,4.5,7.07,9.06,10.63,7.64.13.13.26.26.35.45,5.4,6.97,11.24,18.34,16.44,26.27.8,1.16,5.2,6.33,2.47,7.13,1.93,1.16,5.52,3.4,7.07,4.53,7.74,5.59,14.39,14.26,23.32,20.11,11.53,7.61,20.3,11.18,34.4,10.92,4.59,3.5,9.41.77,13.3-.58.64-.23,1.19-.39,1.73-.51,4.05-.9,9.51-1.48,13.27-2.67,8-2.54,15.06-7.39,22.74-10.09,4.95-1.7,13.04-2.05,19.5-4.33,11.82-4.14,28.46-15.9,38.57-18.31,4.14-1,35.01-.87,37.77.45,1.57.8,10.66,9.99,11.02,12.65,2.92,3.92,5.97,7.61,9.19,11.08,1.8,1.48,3.05,3.63,3.82,6.46-.8-1.32-1.35-1.32-1.64.13.84,2.54.96,5.04,3.82,6.42.16,1.61-.03,3.66.35,5.01,1.16,4.05,3.82,6.62,5.75,9.67.87,2.6,1.19,5.46,2.28,8.22.45,1.12,1.45,2.12,1.93,3.24,3.34,7.61,9.15,13.04,13.17,19.21.67,1,3.21,8.58,4.08,9.76,1.16,1.64,2.47,3.21,3.69,4.75,3.69,4.66,9.35,8.61,12.69,12.53,6.68,7.74,13.33,15.9,20.23,23.74l-.23,4.75c17.79,16.48,32.54,34.98,44.16,55.37l4.3,1.86c.39,1.12,2.09,6.2,2.15,6.55l1.41-3.47,1.41,8.8c9.7,22.39,16.99,46.7,20.14,70.11,14.42,57.62,20.78,86.66,19.14,87.14,1.54,6.75.67,19.24,2.15,29.58-.29,2.89-.55,5.81-.77,8.77.26,2.54,2.31,7.07,2.92,11.63-5.3,3.21-6.68,8.93-4.08,17.09-14.58,1.41-22.9,6.39-25.02,14.9-3.6,2.09-4.21,4.59-5.81,5.81-18.15,14.16-23.64,29.29-37.77,43.65-5.49,5.59-45.9,34.59-50.84,34.75-6.97.23-17.7-9.92-24.76-12.91-25.5-10.76-49.3-17.12-72.72,2.76-34.27,29.13-13.78,80.23-8.64,117.88-.74,14.87,1.12,30.26,0,45.06-4.21,54.22-11.02,61.8,2.92,117.81l-3.85,8c9.96,30.48,19.05,60.09,15.03,92.5.03,8.09,2.15,14.32,6.26,18.73l-2.92,8.74c1.41,4.24,1.89,8.48,2.92,11.63,3.34,10.05,5.69,19.08,8.74,29.1,1.06,3.56,1.48,8.61,2.89,11.63.55,1.16,2.47,1.99,2.89,2.89-1.86,11.11,7.77,16.99,11.63,23.29,12.65,20.68,17.67,28.71,37.8,43.62,19.14,17.86,44.97,35.94,67.51,50.01,1.16.71,3.08.23,5.14-.58,25.76,24.25,32.99,51.94,43.58,84.34,5.07,15.35-.96,18.12-5.81,31.99-2.7,7.77-5.72,13.23-8.7,20.36-3.98,9.47-7.19,16.86-11.59,26.18-6.97,12.04-13.75,23.67-20.4,34.88-3.08,7.48-5.78,15.61-8.7,23.29-3.95,3.53-5.94,7.42-5.81,11.63-4.01,4.17-5.07,11.5-5.81,17.44l-2.89,2.92c-.29.87.26,1.99,0,2.89-3.76,3.82-6.65,9.28-5.85,14.55-4.08,5.3-9.83,14.9-5.81,20.36h-2.86c.06,10.41-5.97,19.5-8.7,29.07-7.03,24.09-13.14,48.69-20.4,72.72-3.5,11.63-8.19,23.09-11.63,34.88-3.69,12.62-6.33,21.78-8.7,34.91l-5.78-11.63c-.67-10.6-1.48-18.66-2.95-29.1-1.41-9.86-4.14-19.37-5.81-29.07-18.6-108.72-40.08-201.13-75.54-305.35-9.6-28.14-16.93-57.14-29.1-84.34-2.06-16.7-14.74-35.07-20.33-49.46-14.26-36.71-28.52-73.81-43.58-110.49-5.33-12.91-12.3-25.08-17.44-37.8-7.64-19.05-16.48-40.53-17.41-61.09-1-1-1.93-1.99-2.95-2.89-.19-4.18-2.34-9.54-2.89-14.55-.06-.55-.13-1.09-.19-1.64v-.03c-4.18-36.52-11.92-71.11-5.62-108.85,1.28-55.92,15.42-111.16,11.79-167.37-7.36-112.16-105.45-200.68-157.64-295.97-18.34-33.56-31.38-68.54-45.99-103.74-12.94-31.19-36.58-114.7-67.1-129.02-7.16-3.37-9.12-4.43-17.25-3.6-40.37,4.24-26.43,47.25-26.11,74.45,1.67,3.11,3.57,6.04,5.81,8.7,1.12,57.23.16,114.41-2.89,171.61-3.34,6.68-5.27,11.5-5.81,14.52-2.99,35.94-23.41,75.38-26.18,116.33-5.14,4.85-2.83,16-2.86,23.29-4.88,19.79-4.88,47.09,0,66.87l2.86,26.18c4.08,57.59,32.63,137.73,63.95,186.13,36.78,56.75,70.02,67.64,119.16,104.71,11.88,6.04,23.86,12.43,35.97,19.17l4.72-1.73c8.67,5.2,18.11,11.37,26.21,17.44,8.9,6.68,27.3,21.68,34.85,29.1,3.69,3.63,10.18,17.12,17.44,23.25,8.67,15.51,17.99,30.74,26.14,46.54,6.94,13.36,13.78,27.14,20.4,40.69,8.32,17.28,28.23,53.51,31.93,69.79-5.3-.96-9.25-4.59-14.52-5.81-11.05-13.3-29.39-17.67-43.62-26.18-7.64-4.56-15.42-9.8-23.25-14.52-12.49-7.64-25.21-15.54-37.77-23.29-6.55-4.05-13.2-10.18-20.36-14.52-11.5-7-23.35-13.49-34.88-20.36-10.21-6.14-20.97-14.04-31.96-20.36-21.23-12.2-39.22-21.29-61.03-31.99-18.24-8.93-35.11-18.76-55.21-26.18-11.63-4.27-23.03-8.19-34.91-11.63-9.67-2.79-19.4-3.69-29.07-5.81-1.86-.42-4.59-2.09-8.7-2.92-6.2-1.22-15.93-5.14-20.33-5.81-5.33-.8-11.88.58-17.47,0-5.33-.55-11.02-2.86-11.56-2.89-5.75-.29-11.72-.1-17.47,0-23.93.26-45.35,5.4-68.06,10.57-1.06-.1-2.57.26-4.59,1.06-92.95,20.94-176.81,71.43-272.62,83.48l-108.14,12.49c-19.21-.51-38.96-.55-58.13,0-23.06.64-54.92-4.05-52.51,30.48,2.47,34.53,34.88,25.21,56.82,27.72,35.72,4.05,64.01,10.28,97.42,23.22,1.41,3.6,5.2,4.59,8.7,2.92.64,3.76,5.07,5.37,8.74,5.81,1.99.84,3.82,2.02,5.85,2.89,3.02,1.32,6.23,1.83,8.67,2.92,70.44,30.87,123.08,53.09,197.69,75.61,2.92.9,5.81,2.06,8.67,2.92l5.85-2.92c1.83,4.46,7.42,3.85,11.6,2.92,22.48,8.38,53.51,16.64,75.57,5.81,24.06.77,48.6.22,72.68,0,1.41,2.47,2.34,2.6,2.89,0,5.49-.1,14.26,1.99,17.44-2.92,10.66,8.22,33.72,6.04,43.58-2.89,4.69-.1,12.11,1.7,14.58-2.92,25.6.22,56.14-5.97,81.36-11.63,15.8-3.56,31.12-10.57,45.42-14.26.35-.1.74-.19,1.09-.29,26.02-6.46,51.78-13.75,78.5-17.44,1.29.03,2.6,0,3.89-.03,5.94.26,13.1,1.61,16.41-2.89,8.61-.51,17.57-.13,26.18,0,3.18,4.98,11.92,2.73,17.44,2.92,34.72,1.06,62.34,16.09,90.09,17.44,9.86,9.25,18.28,21.49,26.18,29.1-2.15,8.58,4.95,14.32,11.59,8.7-4.21,7.74,6.87,19.82,14.58,14.55,6.14,9.73,10.98,11.66,14.52,5.81,1.35,26.66,10.89,53.73,26.15,75.61-.77,8.54-.03,16.93,2.09,25.21,23.16,92.24,44.97,184.52,64.4,277.47l6.2,11.4-4.88,5.14,19.34,96.68,5.88,2.89-6.2,2.44c-3.44,7.45-23.03,75.9-20.33,79.01.93,1.09,2.12,1.99,3.28,2.89-16.7,19.4-20.68,53.03-17.44,78.5-1.12-2.5-2.06-2.54-2.92,0-.55,15.61-5.91,31.25-8.7,46.54-4.46,24.22-11.18,48.21-14.58,72.68l-19.78-48.47c-2.25-7.74-8.9-14.87-12.14-21.3-6.97-13.71-15.58-26.34-22.35-39.09-.03-.03-.06-.03-.03-.06-.29-.51-.61-1.06-.87-1.57-10.92-21.04-20.56-41.79-29.07-63.98-4.95-13.01-10.21-27.53-14.52-40.73-2.54-7.68-3.92-15.45-5.81-23.25,5.52-20.17,2.67-44.42,2.79-65.65.03-3.69,3.02-6.68,3.02-7.07,0-2.44-3.57-14.74-5.81-17.44l5.81-4.27c1.28-27.01-1.54-53.48-5.81-80.07-4.69-19.4-9.38-38.86-14.55-58.17-6.62-24.95-11.08-48.05-20.33-72.68-9.67-25.76-22.61-48.44-34.85-72.72-10.63-20.97-19.88-45.9-34.91-63.98-3.76-12.04-7.03-16.25-11.6-26.18-3.28-6.94-1.54-18.98-12.33-24.02-8.9-4.14-25.21-3.66-30.96,5.43-6.81,10.7,3.76,54.51,5.49,70.95-.06,21.3.13,42.69,0,63.98,5.78,13.36,2.41,30.19,2.41,45.25-1.61-14.29-2.41-28.97-2.41-44.03-.32,51.52-1.12,93.02,11.6,144.18,6.13,24.7,13.94,39.02,23.25,61.09,9.25,21.74,18.6,42.4,29.07,63.98,7.23,14.9,14.97,29.74,22.32,44.61.32.64.61,1.25.93,1.89,12.59,25.63,28.91,50.43,40.69,75.64,7.52,16.06,12.98,33.08,20.36,49.43,10.47,23.19,20.33,41.56,31.96,63.98,7.58,14.61,19.24,29.74,26.18,43.62,9.22,18.53,18.4,44.19,26.15,63.98,4.75,12.14,12.27,22,12.98,36.3,1.83,36.65-20.81,113.31-27.01,154.68-18.34,121.86-20.62,252.39-29.58,376.11-1.22,17.22-3.4,31.54-2.89,49.46-4.46,4.88-3.79,19.21-2.92,26.18l-4.18.61c-7.07-30.13-51.71-127.67-76.47-138.37-2.06-.9-4.27-1.41-6.52-1.86-9.7-18.6-26.5-42.53-46.51-49.43-3.79-12.17-14.2-17.54-20.36-26.18-13.14-18.47-24.67-37.93-34.88-58.17-5.2-10.34-13.49-24.73-17.44-34.88-3.76-9.92-15.19-45.16-16.73-54.5-1.57-9.89-.39-19.91-.67-29.84.1-8.19-6.36-12.27-8.74-17.44-1.09-2.44-5.11-10.31-4.56-11.66,1.64-3.69,15.96-14.81,20.33-20.59,5.27-7.03,6.75-12.91,10.37-20.11,24.09-47.54,42.69-113.99,61.09-165.77,3.66-1.28,4.69-5.36,2.86-8.74l2.96,2.92c.9-3.92,5.23-8.45,2.89-14.55,6.42-18.5,12.37-34.3,14.52-55.24,14.9-53.77,10.86-104.64-12.33-154.91-1.99-4.34-2.67-9.03-8.03-10.89-.06-3.73-2.5-6.39-2.86-8.7-9.89-11.02-24.47-31.28-29.26-44.9-4.88-13.94-3.6-29.49-6.39-43.04-6.78-32.6-20.94-54.66-45.77-74.93,7.42-10.18-11.98-18.24-21.01-21.97-30.61-12.65-56.24,2.02-77.25,22.84-11.72-9.41-24.51-14.55-38.35-15.38-7.23-3.73-9.83-5.69-7.87-5.94-26.11-1.32-39.44,8.22-57.56,9.03-9.19.42-15.64-4.95-23.51-5.85-19.62-2.22-36.71,10.66-50.59,23.09-4.5,9.38-11.27,18.08-20.33,26.18-6.55-1.38-11.95,2.83-16.06,12.65-6.46-.19-10.76,1.41-12.98,4.82-.64-.16-1.22-.39-1.8-.64-.06-.03-.13-.06-.22-.1-3.37-1.57-6.49-4.21-11.24-4.92-17.86-2.6-36.52.03-50.72,11.47-7.13-3.28-13.07,1.16-17.83,13.33-6.58,28.65-24.31,35.72-50.94,40.53-12.98,3.44-22.96,9.7-30.06,18.82l-11.63,8.74c-45.58,56.72-34.82,93.3-43.87,161.11-.96,7.26-4.37,13.71-5.52,22.1-2.79,4.5-4.72,9.31-2.92,14.55-26.63,72.91.61,158.67,66.87,200.68,3.31,4.56,7.19,9.41,11.63,14.52-3.28,7.61,11.05,16.57,17.44,14.55.19.29.42.55.55.84,8.45,12.78,17.09,33.18,25.15,47.6,1.22,2.09,8.16,11.6,3.34,12.65,3.15,2.25,9.12,6.59,11.66,8.7,12.72,10.7,23.06,26.5,37.8,37.8,18.95,14.61,33.72,21.87,58.1,23.29,7.48,6.62,16.19,2.51,23.13.64,1.06-.26,2.09-.51,3.02-.64,7.1-1.03,16.61-1.35,23.29-2.92,14.2-3.37,26.98-10.86,40.66-14.55,8.74-2.34,22.84-1.86,34.24-4.98,20.97-5.72,51.29-23.93,69.12-26.82,7.26-1.16,60.74,2.99,65.23,5.62,2.67,1.57,17.25,18.6,17.44,23.29,4.62,7.16,9.44,13.94,14.52,20.36,2.95,2.79,4.85,6.65,5.81,11.63-1.22-2.38-2.18-2.47-2.86,0,1.12,4.5,1.03,8.87,5.78,11.63.06,2.79-.51,6.33,0,8.74,1.45,7.1,5.75,11.88,8.7,17.44,1.16,4.62,1.32,9.54,2.92,14.55.61,1.96,2.18,3.82,2.89,5.81,4.85,13.62,14.23,23.74,20.33,34.88,1.06,1.86,4.5,15.26,5.81,17.47,1.86,2.95,3.85,5.85,5.81,8.7,5.81,8.48,15.06,16.09,20.36,23.29,10.57,14.23,20.97,29.2,31.96,43.62l-1,8.19c28.71,30.83,51.84,64.69,69.41,101.5l7.16,3.73c.51,1.99,2.86,11.02,2.92,11.63l2.89-5.81,1.25,15.42c13.97,39.96,23.48,82.99,25.95,123.85-5.94-9.44-13.07-14.16-21.39-14.2-11.37-11.95-23.54-22.93-34.88-34.91-.19-.22-.39-.45-.64-.67-10.92-11.72-19.88-25.92-31.32-37.13-.1-4.11-4.91-7.77-8.7-5.81,1.93-1.99,1-4.91-2.89-8.74-10.98-7.19-28.04-14.29-37.84-20.36-1.45-4.11-4.91-6.84-8.7-8.7-.71-.45-2.22.42-2.92,0-12.08-7.68-16.03-9.35-26.14-20.36-8.03-8.77-18.92-22.39-26.14-31.99-10.98-14.52-21.42-31.44-31.99-46.54-9.15-13.1-16.96-27.4-26.14-40.69-10.44-15.13-19.69-32.76-34.88-43.65-3.31-10.7-5.72-8.51-11.59-14.52-13.75-13.94-24.99-21.39-40.73-31.99-17.15-11.56-27.24-17.96-46.51-26.18-23.99-10.28-48.88-14.93-72.65-23.29-18.37-6.42-37.39-12.53-55.24-20.33-15.29-6.71-35.39-17.18-49.37-26.18-15.64-10.05-31.32-23.8-46.51-34.91-20.88-15.26-35.01-29.07-58.17-43.62-15.96-10.02-25.02-16.03-43.55-23.25-21.94-8.54-45.16-12.46-66.9-20.36-20.43-7.45-39.18-18.66-58.13-29.1-13.59-7.45-27.17-15.54-40.63-23.25-5.62-3.21-10.37-8-17.47-11.63-7.03-3.6-13.97-4.85-20.33-8.74-16.61,8.09-17.79,14.39-17.47,31.99,6.49,6.42,13.1,10.09,20.36,14.55,2.79,1.73,2.73,3.05,8.7,5.81,14.16,16.06,33.15,27.46,48.21,42.43.42.38.8.8,1.22,1.19,15.45,15.8,36.49,42.85,49.4,61.09,12.37,17.47,22.19,37.36,34.91,55.24,9.64,13.59,18.95,25.18,29.04,37.8,15.32,19.21,21.42,29.07,40.69,46.54,17.92,16.22,30.42,26.53,52.32,37.8,14.36,7.39,28.84,11.47,43.59,17.44,19.59,7.93,39.44,12.85,58.13,23.25,27.17,15.16,39.8,34.56,61.03,55.28,16.51,16.09,24.99,24.22,43.62,37.8,1.16.83,2.28,1.67,3.4,2.44,0,0,0,.03.03.06,27.94,20.4,42.4,30.51,80.87,32.38,2.86,4.53,12.24,3.34,17.41,2.92.96-.06,1.93.06,2.89,0s1.96.06,2.92,0c1.9.03,3.79.03,5.75.03h.67c4.66-.03,9.28-.16,13.91-.03.61,0,1.12.03,1.67.06h-1.61c3.5,4.56,11.05,2.99,17.09,2.79,1.12-.06,2.25-.03,3.21.06,24.6,3.5,48.43,9.32,72.65,14.52.64,5.07,24.35,11.82,29.07,14.55,12.69,7.26,31.89,18.31,43.59,26.18,12.65,8.45,27.04,21.2,37.8,31.99,14.97,15.06,33.4,34.88,46.51,49.43,10.18,11.31,26.59,26.59,34.88,37.8l-2.5,6.52c18.02,27.46,32.83,57.33,45.13,87.78l6.78,1.67c2.34,6.62,7.68,19.27,8.54,24.92,3.76,24.57-13.46,90.51,30,82.06,29.13-5.65,22.64-33.21,25.47-53.16,3.89-28.26,6.81-49.91,14.45-74.19l6.91-2.41c18.82-53.03,38.99-108.63,75.8-152.05l4.5-11.31c1.8,1.19,3.73.19,5.81-2.89,2.76-4.69,5.88-10.02,8.77-14.55,4.82-1.83,8.83-6.49,8.67-11.63,4.08-2.63,8.51-7.03,8.74-11.63,5.75-2.44,11.56-3.44,17.44-2.92,22.61-8.83,53.09-17.6,69.73-37.8,3.21-.07,5.91-2.06,8.77-2.89,1.83-.58,4.91.48,7.23-.03l1.48-2.89c-4.5-1.38-2.54-2.34,5.81-2.92,2.54-.55,5.33-2.25,8.7-2.89,3.53-.67,8.29-2.86,8.7-2.92,1.73-.16,3.5-.29,5.27-.35h.1c16.09-.84,33.76,1.16,49.88.35,31.6,8.22,67.74,11.37,100.37,8.83,46.12-3.56,47.73-16.67,97.26,2.83,25.25,9.89,36.49,22.8,55.24,40.69,10.98,10.47,20.3,21.81,31.96,31.99,4.21,3.66,10.47,12.27,13.81,14.58,33.53,23.09,76.22,14.71,114.09,17.41-2.54-.84-2.5-1.8,0-2.89v2.89c29.45,2.09,53.73,12.43,81.39,20.36,6.36,1.83,8.35,5.59,18.82,5.97,29.36,1.09,36.65-23.83,16.06-43.78-15.06-14.58-34.14-22.96-49.4-34.91-12.14-9.44-26.66-19.66-37.8-29.07-27.3-23.06-34.14-38.61-69.73-58.17-9.06-4.94-12.78-7.77-23.29-11.63-11.59-4.27-19.95-6.26-31.99-8.74-2.06-3.89-8.42-4.43-13.62-3.69-.55.42-1.83.67-3.79.8,1.09-.35,2.41-.61,3.79-.8.71-.48.35-1.19-.9-2.12-4.95-.32-15.64-7.97-23.22,0-4.82-.32-9.7.19-14.52,0-4.24-1.06-8.09-1.06-11.66,0-17.02-3.72-35.04-1.96-52.32,0-28.17,1.38-53.8,6.87-81.36,11.63-7.8.16-13.59,2.12-17.47,5.81-21.81-1.93-44.9-1.35-66.84,0l5.81-2.89c-4.4-.32-17.06-8.29-23.25,0-2.89-.19-5.85.22-8.74,0-4.75-5.53-16.38-4.92-23.25-2.92,2.5-1.09,2.54-2.09,0-2.89-10.6-.29-21.3.19-31.96,0v-2.92c-6.94,2.99-13.1,5.98-20.36,8.74-14.81,5.59-31.25,10.05-46.51,14.55l2.92-2.92c10.57-10.57,33.53-27.43,46.51-34.91,14.65-8.42,36.71-15.45,52.32-23.25,10.44-5.23,18.34-8.32,29.07-14.55,17.44-10.15,28.14-20.68,43.58-31.99,8.64-6.33,16.86-13.49,25.25-19.66.29-.22.58-.45.9-.67,13.91-10.09,15.42-10.31,32.02-11.66,8.77,2.38,17.54,6.17,26.11,8.74,12.88,21.74,56.14,36.36,79.88,35.04,10.98-.61,22.61-8.42,34.62-8.58,23.06-.26,46.54,12.04,68.61,14.26,8.67.83,23.29.83,31.99,0,8.19-.8,13.01-2.73,20.33-5.81,42.36-17.92,40.57-45.45,61.06-78.53,4.4-7.07,16.32-22.9,22.68-28.59.19-.19.39-.35.58-.51,15-12.62,37.35-16.7,44.52-41.21,7.39-25.15-6.75-30.03-6.81-38.8-.03-6.94,23.13-20.01,16.93-48.95-.96-4.5-4.14-5.65-5.23-7.71,5.72-9.64-16.25-23.93-26.14-23.29l-8.7-8.7c-.8-.32-2.02.29-2.89,0-6.3-11.43-7.48-26.27-3.66-44.52l-2.15-2.02c-.58-10.99-2.89-24.73-11.66-31.99-10.76-11.72-16.57-17.73-33.69-20.14-20.2-2.83-30.58,7.42-41.88-14.77-1.77-4.4-3.69-6.36-5.81-5.81,1.45-3.02.51-6.17-2.92-5.81-1.19-7.55-12.72-19.79-20.33-20.36-.8-3.5-3.73-4.46-8.74-2.89-.84-4.66-7.58-5.23-11.6-2.92-4.01-4.34-13.26-4.4-17.47,0-5.3-2.09-12.46.1-17.41,2.92-3.89,1.54-6.75,3.5-8.74,5.81-11.05,3.95-19.75,9.76-26.11,17.44-.74.45-2.28-.45-2.95,0-7.19,4.75-17.5,16.64-18.79,16.83-4.56.68-12.91-6.84-30.58-2.28-15.32,3.95-20.75,10.89-31.99,17.44-9.57,5.62-23.54,12.04-31.99,17.47v-2.92c-2.83,2.06-5.81,3.85-8.74,5.81v2.92c-1.77,1.12-4.01,1.73-5.78,2.89-14.32,9.19-23.86,16.67-31.99,31.99-3.08,5.81-5.33,11.11-7.29,17.44-7.07,22.96-11.56,44.13-21.74,66.9-.64,4.59.32,6.55,2.89,5.81,1.19,21.23.61,42.78,2.89,63.98.19.26,2.86,5.49,2.92,5.81l4.08.71,15.87,41.24,6.2,1.67-5.94,3.34c-.48,15.77-4.3,30.19-11.5,43.2-5.75-.22-14.77,6.3-17.41,11.63-9.31,2.38-22.03,9.06-26.18,17.47-2.38-3.47-8.61-.93-8.74,2.89-6.36-.29-13.01,6.84-17.41,11.63-5.75,2.73-11.56,5.62-17.47,8.74-1.19.71-1.99,2.34-2.89,2.89-7.93,4.88-31.77,12.04-43.62,17.47-11.85,5.43-26.63,9.06-37.74,14.52-1.86.93-3.92,4.78-5.81,5.85-15.38-2.79-44.36,17.51-49.46,31.99-2.47,1.09-2.54,2.06,0,2.89-4.14.29-9.7,1.99-11.56,5.81-4.95.51-4.95-4.34,0-14.55,5.04-1.32,7.29-6.71,8.7-11.63,12.62-1.96,29.77-22.42,31.93-34.88,41.27-32.34,69.76-78.79,90.57-126.16,3.98-9.09,10.92-26.01,5.36-33.79,4.69-10.69,9.31-21.52,14.52-31.99,7.84-15.67,16.93-31.73,26.18-46.54,37.35-59.61,68.32-92.21,84.28-165.77,3.66-16.83,5.17-29.36,5.85-46.54,4.82-3.02,2.86-11.05,2.92-15.96.39-35.52.16-67.8,2.89-103.26,2.34-30.9,5.36-62.7,11.59-93.08-1.67.13-2.96.1-3.95-.03-3.44-.39-2.92-1.99-1.54-3.24.06,0,.06-.03.06-.03.58-.51,1.38-1,2.09-1.22.58-.58.8-1.32.58-2.25l2.76,6.78c10.98-53.54,52.93-146.01,55.21-191.94,8.93-17.63,23.8-70.53-4.98-75.09-19.14-3.05-23.96,16.38-29.9,28.59-1.48,3.05-1.8,6.49-2.89,8.7.55-5.4-.39-6.36-2.92-2.89-1.09,3.66-4.08,9.22-5.81,14.52-.29.9.32,2.06,0,2.92-4.21,5.69-6.1,11.5-5.81,17.44-2.51.96-2.51,1.96,0,2.92-3.44-.13-4.69,3.12-2.89,5.81-12.08,31.54-29,68.61-46.89,97.13-2.96,4.66-7.93,4.24-8.32,4.66-.45.48,3.15,8.03-2.92,11.63-1.03-1.54-2.02-1.61-2.89,0-6.23,10.05-13.2,19.69-20.36,29.1-27.43,36.04-59.68,68.41-87.2,104.67-41.75,55.05-78.27,115.43-87.2,186.13v5.33c.1,1.12.1,2.28,0,3.4l-.39,3.11-2.51,20.14c-.03,2.92-.06,5.81,0,8.74.39,20.27,1.38,40.79,2.44,61.09v.13c.16,2.86.29,5.72.45,8.58-.03.03-.16.06-.23.1-7.61,2.63-7.58,5.97.23,8.64-9.06,6.68-3.37,41.08,5.81,46.51.87,19.34,1.51,45,0,63.98l-6.78,9.41c-3.82,31.12-13.52,61.12-26.34,89.68l1.16,11.43c-1.51,5.14-2.47,9.99-2.86,14.55-3.76,3.44-10.44,10.02-8.77,14.52-3.98,1.32-7.23,7.71-5.81,11.66-3.76.67-5.85,5.88-2.89,8.7-4.14,2.09-7.07,5.97-8.74,11.63-5.78-1.19-9.57,2.31-11.34,10.57l-8.96,38.9c-20.88,48.34-36.65,82.74-61.57,128.89-18.56,34.4-37.26,68.83-54.73,103.74l-5.81-1.48c7.45-43.71,8.25-88.36,11.63-132.3,14.13-184.88,17.15-362.88,49.4-546.72,6.42-36.58,13.1-74.13,20.36-110.52,3.66-18.34,7.8-36.9,11.63-55.24,6.07-29.29,11.37-68.6,20.33-95.97,3.82-11.5,16.67-30.87,20.36-43.65,14.13-23.29,28.1-47.38,43.62-69.79,10.09-14.61,21.55-29.04,31.93-43.62,11.18-15.67,23.83-31.16,34.91-46.54,10.02-13.97,20.36-25.34,29.04-40.69,9.64-17.02,17.28-34.94,26.18-52.35,1.16-2.31,3.92-5.04,5.81-8.74,2.34-3.85,4.24-5.75,8.64-7.32,36.45-13.39,76.09-5.04,113.41-4.3,9.35-4.95,29.07-4.85,37.8,0,6.87-.26,11.69-2.28,17.47-2.89,1.67-.19,4.08-.22,5.78,0-3.6-5.81.45-9.41,5.27-7.84,1.12.39,2.31,1.03,3.47,2.02l2.89,2.89c31.83-17.99,99.09-48.98,133.68-55.24,6.58-1.38,12.4-3.34,17.47-5.81,7.58.19,15.32.19,23.22,0,3.34-.74,6.14-2.31,8.74-2.92,5.04.42,11.47.51,15.77-1.83.26-.35.84-.71,1.67-1.06,2.6-.74,7.16-4.66,11.63-5.85,5.4-1.41,11.82-2.12,17.44-2.89v2.89c4.56-1.7,7.52-3.63,11.66-5.81l11.59-2.89c.48-.51-.48-2.34,0-2.92,1.67-1.99,4.05-3.63,5.81-5.81,33.34-13.75,58.2-41.14,87.2-61.06,3.12,1,6.62,1.8,9.28.19,41.69-25.21,79.75-46.15,127.32-58.36,18.82-21.91,17.76-31.57-8.74-43.62-10.34,3.15-25.44,4.88-36.36,5.78-23.99,1.99-51.94,5.11-75.41,5.97-98.48,3.53-158.22-20.39-257.33,20.24-17.09,7-32.73,15.74-49.43,23.25-17.54,7.9-34.62,18.82-52.29,26.18-23.06,9.57-51.58,15.42-75.61,26.18-11.21,5.04-21.46,11.08-31.96,17.44-16.8,10.15-23.77,16.57-37.77,29.1-31.73,28.3-62.73,62.12-84.31,98.86-12.3,20.97-16.54,38.64-26.14,58.17-5.94,12.04-15.51,26.63-23.25,37.8-8.99,13.01-21.94,27.72-31.96,40.73-9.8,12.65-19.62,24.83-29.07,37.8-1.38,1.9-10.34,19.63-11.63,10.15-2.15-15.42,4.82-21.74,11.63-33.44.67-2.63-.29-3.6-2.92-2.89l14.58-52.35c-.1-1.93,0-3.89,0-5.81,7.97-21.87,13.33-44.71,20.3-66.9,2.22-6.97,6.68-13.94,8.7-20.33-.29-6.23.61-11.92,2.73-17.02.06-.16.13-.29.19-.45,1.38-1.28,1.9-2.95,1.67-4.46.61-.35,1-1.7,1.22-4.17v-.06c9.6.64,17.5-24.79,8.74-29.1l8.7-8.7c4.43-3.73,4.98-5.78,1.67-6.07-1.06-.1-2.63-.03-4.56.26,3.73-1,6.58-5.72,3.69-8.19,2.83,1.67,3.53.16,2.15-3.47,4.69-5.17,8.48-13.97,8.7-20.33,4.4-5.39,9.09-13.52,8.7-20.36,3.66-1.93,6.97-9.48,2.89-11.63,4.69-7.32,8.61-15.09,11.63-23.29,1.54.9,2.89,1.48,3.63,1.03,3.12-1.93,29.36-57.52,32.47-65.62l-4.11-5.2c6.33-.26,11.15-5.56,14.39-15.96,18.95-5.88,37.55-12.94,55.79-21.13l2.47-6.52c8.06-1.51,17.79,0,24.7,0h55.24c4.56,0,16.89,5.94,24.7,2.89,11.11,5.68,27.72,2.47,40.69,2.92,3.21.1,7.36-.87,8.7,2.92,4.82-.77,9.7-2.09,14.58-2.92,14.61-2.54,36.07-5.11,49.37-8.74,2.38-.64,5.78-4.27,8.03-5.53.29-.13.48-.22.71-.29,13.97,7.1,32.38-3.12,40.66-14.52.96-.48,1.83-2.38,2.92-2.92,7.45-3.79,18.76-10.21,26.14-14.55,5.27-5.11,10.08-9.96,14.55-14.52,14.07-10.6,25.6-19.5,37.77-31.99,14.9-15.29,21.58-25.31,31.99-43.65,16.51-8.74,25.12-38.57,29.87-57.23,6.97-27.17,9.92-60.61,7.9-88.17,2.34-3.11,1.54-9.86-2.89-8.74,2.12-7.52,3.08-16.25,2.89-26.18-.87-12.37-4.98-27.14-5.81-37.8-2.92,7.87-1.8-17.83-1.48-24.44.16-4.5.55-8.93,1.48-13.36-.61-6.65.61-13.68,0-20.36-.06-.93.13-1.93,0-2.89.16-7.39-.8-14.16-2.89-20.36.55-8.03,1.22-23.67-5.81-26.18,4.98-1.9,4.11-9.03,0-11.63,7.03-66.65-37.55-98.22-92.28-55.76-2.31-13.27-6.81-25.6-13.59-37.03l-4.59-.26c-21.23-37.42-68.22-41.14-91.7-66.77-18.79-20.52-16.45-63.98-50.72-72.84,10.37-12.69-13.55-30.77-26.18-31.99-1.64-1.99-3.57-3.92-5.81-5.81-6.58-2.12-20.59-8-23.25-8.7l-4.88-5.07c-9.44,3.82-17.5,3.56-24.19-.74.74-1.64,1.16-3.21,1.28-4.72,10.31-16.96,16.67-37.1,17.7-56.91,2.83,4.82,6.71,3.21,11.69-4.79,6.17,4.34,15.1-5.62,11.72-11.98,5.33,4.62,11.08-.1,9.35-7.16,6.36-6.26,13.14-16.35,21.07-23.96,22.35-1.09,44.61-13.49,72.59-14.36,4.43-.16,11.47,1.7,14.04-2.41,6.94-.1,14.2-.42,21.1,0,2.67,3.73,8.42,2.6,13.2,2.38,1.03.03,2.12.06,3.18.03,21.49,3.05,42.24,9.06,63.21,14.36.26.1.58.16.87.26,11.53,3.02,23.86,8.8,36.58,11.72,20.3,4.66,44.9,9.76,65.55,9.57,1.99,3.79,7.97,2.31,11.72,2.41,7.93,7.36,26.53,9.15,35.11,2.38,2.57,4.05,9.64,2.31,14.07,2.41.42,2.12,1.22,2.02,2.31,0,19.4.19,39.18.64,58.55,0,17.79,8.9,42.78,2.12,60.9-4.79,3.37.77,7.87,1.25,9.35-2.41l4.69,2.41c2.31-.71,4.63-1.67,7-2.41,60.09-18.53,102.49-36.84,159.24-62.25,1.96-.9,4.56-1.32,7-2.38,1.61-.74,3.08-1.7,4.69-2.41,2.99-.35,6.52-1.67,7.03-4.75,2.83,1.35,5.88.55,7-2.41,26.92-10.66,49.75-15.8,78.5-19.11,17.67-2.09,43.78,5.59,45.77-22.84,1.96-28.42-23.74-24.54-42.3-25.08ZM1631.34,991.07l5.07-7.16c.13-35.97-1.25-71.88-4.18-107.73-4.66-59.71,12.62-114.44,49.49-161.75,27.4-34.78,51.9-71.21,73.55-109.24l.16-6.68c9.92-18.11,15.42-31.8,23.41-50.3,7.07.38,8.7-3.57,4.66-9.57l3.37.13c4.62,51.46,14.42,102.49,29.32,153.08,15.8,64.3,3.95,129.12-16.61,190.11l2.67,6.17-7.71,6.2c-20.46,45.19-55.47,82.55-97.45,106.44l-11.92,14.23c22.84-45.87,45.8-97.29,55.08-148.32,2.79-15.26,7.81-51.74,5.88-66.04-1.35-10.15-9.28-14.93-16.64-7.16-6.46,6.81-16.12,56.56-20.3,70.15-17.18,56.34-35.75,105-68.51,153.75-3.15,4.66-7.36,11.05-11.69,14.36.55-13.52,1.48-27.14,2.31-40.66ZM1422.5,540.03c-.29-.71-.93-.61-1.57-.35,4.27-3.31,8.41-8.13,4.01-12.49,8.9-4.27,17.5-19.24,18.21-29.32,3.18,1.09,3.5-.35.64-2.28,5.69.71,16.16-15.93,13.36-20.81l4.18-.06,17.22-20.91-.77-3.92c3.12,3.18,3.76,2.76,2.95-1.61,3.02-2.09,4.43-4.17,4.21-6.2,2.73-.58,7.55-2.76,6.49-5.56,6.49-3.56,12.88-7.55,19.01-11.82l2.02-5.56c.77.48,1.61.9,2.47,1.22,1.99.64,23.96-11.98,27.53-14.55l2.18-4.56,6.97.84c12.82-4.66,26.05-7.84,39.41-10.34,46.76-4.66,92.34-13.65,136.76-26.92-27.27,43.65-66.55,79.49-109.01,108.05l-2.47,5.49c-9.99,6.07-20.59,11.37-30.77,17.09-6.13-2.06-11.79.93-13.2,7.32-2.6-1.73-5.69,1.51-8.13,2.6-12.53,5.85-29.07,13.14-41.98,17.57-8.42,2.92-17.99,4.95-26.66,7.16-10.12-2.54-25.47,1.54-36,4.82-5.91.48-10.25,2.79-13.01,7.1l-3.89-2.34c-7.81,1.54-15.32,4.34-22.23,7.58,2.25-2.22,3.57-4.95,2.06-7.23ZM1327.69,326.25c-3.44-10.31-12.75-34.37-18.79-42.49-4.3-5.72-10.86-5.91-12.82,1.41-1.73,6.42,9.09,40.25,11.18,50.01,8.38,40.41,13.3,76.7,9.41,117.91-.35,3.95-.84,9.31-2.44,12.88-4.24-8.48-8.25-17.12-12.33-25.73l.74-6.14c-12.17-22.07-25.28-43.55-39.31-64.49-23.19-34.88-30.99-74.45-24.06-116.17,5.33-30.87,8.29-61.64,8.83-92.44l-2.15-4.18c.06-14.52-1.16-24.83-2.44-38.9,4.56-2.25,4.21-5.2-.39-7.48l2.18-1.09c20.4,29.9,43.87,57.68,70.4,83.51,31.73,33.85,46.41,77.66,54.28,122.12l3.76,2.89-2.73,6.42c2.6,34.78-6.62,69.79-24.7,99.05l-2.63,12.85c-1.32-36.04-4.43-75.48-16-109.94ZM1220.61,695.16c1.67,3.4,3.82,4.3,6.39,2.76-3.76,5.49,1.61,21.01,6.87,24.7-1.06,1.41-2.12,1.86-2.73.64-1-2.15-13.01-28.33-10.54-28.1ZM997.57,913.15c-9.76-3.79-10.95-16.89-16.19-25.69-1.38-2.34-2.95-4.3-4.62-6.36.93-2.02,1.54-3.98-.23-5.2-5.72-1.93-33.5-25.86-26.75-31.54l15.51-5.11,1.35-4.5c6.42-3.95,12.01-9.19,19.18-13.17,5.62-3.15,11.88-5.69,17.86-8.06,9.19-2.34,16.38.45,18.95,9.99,3.31,12.43-14.42,24.12-6.81,47.66,4.59,14.36,18.92,19.53,8.03,37.23-6.13,9.93-16.32,8.58-26.27,4.75ZM1183.16,832.28c-.58,8.86-6.1,19.05-8.06,27.43-3.57,15-8.19,30.19-6.81,45.83-5.46.03-9.99,2.89-14.71,4.53-11.85,4.14-24.22,10.34-35.84,13.62-17.86,5.01-35.04,3.95-51.07,14.61-5.33,3.53-14.29,11.66-15.48,17.99-4.88.96-8.99-.26-13.52-1.57-5.36-1.57-18.5-7.68-22.68-10.89-1.16-.93-6.74-6.81-5.62-8,9.44-4.33,17.15,1.99,26.43-1.41,3.53-1.28,10.34-6.68,12.33-9.8,2.31-3.53,1.19-5.11,1.86-6.94,11.95-31.86-8.93-35.52-10.15-58.91-.39-6.71,3.15-10.79,4.63-16.29,1.41-5.43,4.08-10.21,3.89-16.38-.58-18.4-15.9-37.71-34.78-38.51-4.05-.16-11.02.42-15.06,1.09-5.17.9-7.58,2.89-11.43,4.24-3.92,1.32-7.61,2.57-11.47,4.17-7.58,3.21-14.81,7.45-22.77,10.09l-.71-3.73c-9.89-7.03-20.3-11.56-31.25-13.55,2.7-20.62,4.34-41.27,4.95-61.93l15.26-31.7c25.21-5.43,41.75-18.5,49.59-39.22l-2.15-3.76c.58-1.48-.32-4.08,2.31-5.11,5.85,2.31,15.93,2.99,21.2,5.04,2.12,8.93,30.03,17.86,37.32,14.71,15.03-6.46,8.48-28.39-6.04-32.44,8.32-9.09,14.26-18.95,17.86-29.48,11.47.83,22.64-1.73,33.6-7.74,4.53-1.73,29,8.16,29.39,9.67,1.61,6.01-4.59,21.68-7.07,27.88l1.54,4.53c-4.98,9.44-12.91,17.09-20.04,24.99-5.46,6.17-11.24,9.41-17.12,18.08-7.16,10.6-8.19,17.67-13.07,27.85-4.21,8.83-8.45,17.6-13.17,26.18-2.63,4.72-8.29,9.86-10.89,16.48-12.53,31.96,9.7,57.07,40.37,34.85,3.18-2.25,4.27-5.65,5.69-6.84,2.83-2.34,13.04-12.17,14.16-12.82,4.75-2.63,17.83-4.4,23.29-3.4,17.67,3.28,42.17,25.95,50.11,41.69.9,1.86,3.95,9.25,4.11,9.8.71,3.31,1.29,11.59,1.09,15.06ZM1198.48,858c-1.28.51-1.83-.06-1.8-1.51,2.83-3.08,6.97-13.17,2.25-15.32,1.06-11.92.77-15.26-1.99-26.72,5.14-4.05-1.77-21.78-8.29-21.26-12.43-22.16-34.53-42.69-60.48-45.96-12.46-1.54-20.4-1.83-31.64,4.01-8.8,4.56-11.02,9.41-17.38,14.74-1.57,1.28-4.91,1.89-6.42,3.82-.48-.51,2.18-7.77,2.7-8.61,5.01-8.19,11.5-14.74,16.64-24.76,4.88-9.44,7.16-19.08,11.43-27.75,1.96-3.98,7.61-12.56,10.57-15.87,8.19-9.25,16.8-13.78,24.99-25.37l4.79-1c11.34-19.78,18.37-41.43,21.17-64.94,2.83,1.19,5.56,2.7,8.19,4.56-8.54-1.06-3.28,9.99-.64,14.68,9.64,15,15.67,24.51,17.34,42.65-2.7,36.04,7.61,61.67,27.88,90.22,7.03,12.27,4.27,25.21.96,38.25-7.84,22.16-14.58,44.19-20.27,66.13ZM927.49,1741.23c-40.66-59.26-63.72-118.39-85.05-186.8-5.17-16.54-17.18-76.96-25.21-85.24-9.12-9.44-18.95-3.63-20.65,8.7-2.38,17.38,3.85,61.7,7.32,80.23,11.5,62.02,40.02,124.49,68.38,180.22l-14.81-17.28c-52.1-29.07-95.59-74.42-120.96-129.34l-9.57-7.52,3.31-7.52c-25.53-74.1-40.24-152.85-20.62-230.97,18.5-61.48,30.64-123.46,36.39-186l4.21-.13c-5.04,7.29-3.02,12.08,5.81,11.63,9.89,22.45,16.73,39.09,29.04,61.09l.19,8.13c26.85,46.22,57.3,90.45,91.31,132.71,45.74,57.49,67.22,123.98,61.47,196.5-3.66,43.55-5.36,87.2-5.23,130.91l6.3,8.67c1.06,16.44,2.22,32.99,2.89,49.43-5.4-4.05-10.63-11.79-14.52-17.44ZM809.39,1978.69l-3.95,6.84c-7.77-4.14-16.32-4.05-25.69.26-18.69,3.85-45.38,10.63-58.62,23-15.06,3.95-31.25,8.96-46.51,11.66-23.29,4.11-54.54,7-78.47,8.71-4.62.35-12.04-1.93-14.49,2.92-7.52-8.51-18.66-8.32-26.21,0-20.23-.13-40.82.8-61.03,0l-8.38-6.26c-88.52-7.52-178.32-28.72-256.47-71.95,78.56-17.34,155.29-42.17,230.16-74.48,22.35-7.48,45.13-13.75,68.45-17.47l9.83-7.23,7.19,5.14c7.61.83,51.58,1.48,53.99-1.12,1.09-1.19,1.96-2.57,2.76-4.01l7.74,6.78c12.94,1.35,25.89,1.99,38.77,1.93.77,5.14,9.92,4.37,14.52,2.92,1.41,3.28,5.33,5.2,11.63,5.81,2.47,7.36,3.82,7.45,5.81,0l2.15,6.62,43.78,17.22,6.39-3.47c-.19,9.73,29.77,26.18,37.8,20.33-2.73,5.3-1,7.19,2.89,2.92,9.57,14.68,35.27,30.13,52.32,29.07-3.02,10.34,7.36,14.13,16.61,15.61-1.22.1-2.22.58-2.09,1.86-.39,4.72,3.95,7.74,9.19,9.25-13.2.87-26.92,2.95-40.08,7.16ZM974,2575.9c1.06-11.02-.8-21.65-11.59-26.18,4.14-11.88-5.72-30.83-17.47-34.91.64-20.17-11.76-46.96-26.15-61.06,2.7-11.24.96-23.9-5.23-37.87-.93-13.78-5.04-24.41-12.17-31.93,4.82-11.88,5.75-25.66,2.76-41.3,2.12-17.6.26-32.92-5.72-45.96.13-3.63.03-7.29,0-10.95-.03-2.15-.03-4.34,0-6.49,2.76-6.65,6.42-7,7.26-3.98.45,1.54.13,3.98-1.41,6.91,1.83,5.88,2.09,9.99.74,12.33v.03c2.18,11.82,8.16,25.18,16.67,25.44l-2.63,7.93c9.06,18.44,16.61,37.52,21.68,57.46l7.13,4.4c2.79,5.88,5.72,11.69,8.74,17.44,1.25,17.41,6.36,40.31,14.52,55.28-3.69,1.73-2.76,6.39,0,8.7,5.62,9.03,9.28,26.46,2.89,34.91-7.68,3.63-5.91,18.56,2.92,17.44-8.09,3.18-8.48,14.49,0,17.44.26,6.71.1,13.65,0,20.36h2.89c-.45,11.95-2.34,16.8-5.81,14.55ZM852.88,2715.68c2.41,6.1,6.01,7.96,10.66,5.62-7.19,9.06.13,36.58,8.74,43.62-2.02,2.28-3.92,2.96-4.75.74-1.48-3.82-18.92-50.65-14.65-49.98ZM414.46,3017.95c-2.09-4.24-4.59-7.81-7.23-11.63,1.83-3.34,3.21-6.65.32-8.99-9.73-4.08-54.73-48.98-42.3-57.94l27.43-6.91,2.92-7.61c11.63-6.01,21.97-14.39,34.91-20.36,10.12-4.69,21.23-8.25,31.93-11.63,16.12-2.89,28.2,2.86,31.44,19.66,4.21,21.97-27.91,39.92-17.83,81.61,6.17,25.44,30.26,36.2,9.19,65.46-11.85,16.41-29.32,12.75-46.06,4.85-16.44-7.77-16.86-30.58-24.73-46.51ZM770.56,2948.16c-2.09,15.29-12.91,32.25-17.44,46.51-8.06,25.44-17.95,51.13-17.6,78.4-9.44-.61-17.67,3.69-26.02,5.94-21.04,5.69-43.26,14.81-63.79,19.01-31.57,6.42-61.12,2.41-90.25,18.79-9.6,5.43-26.11,18.31-29.07,29.1-8.51,1.06-15.45-1.54-23.19-4.43-9.06-3.37-31.03-15.61-37.84-21.74-1.86-1.7-10.76-12.59-8.7-14.52,16.89-6.33,29.45,5.62,45.96.93,6.2-1.77,18.69-10.25,22.55-15.35,4.43-5.88,2.7-8.7,4.18-11.79,24.7-53.61-10.95-62.63-10.15-103.26.22-11.66,6.87-18.21,10.15-27.59,3.15-9.19,8.32-17.09,8.77-27.78,1.32-31.96-22.68-67.35-55.28-71.11-7-.8-19.14-.67-26.21,0-9.06.87-13.49,4.01-20.3,5.81-6.97,1.83-13.52,3.53-20.4,5.81-13.52,4.59-26.59,10.98-40.69,14.55l-.74-6.55c-16.25-13.43-33.69-22.58-52.32-27.46,7.29-35.33,12.72-70.82,16.41-106.47l30.42-52.93c44.36-6.17,74.68-26.69,90.86-61.54l-3.24-6.78c1.19-2.47-.06-7.1,4.59-8.51,9.86,4.72,27.24,7.16,36.13,11.4,2.44,15.74,49.66,34.72,62.66,30.22,26.76-9.28,18.31-48.08-6.3-56.91,15.51-14.68,27.08-30.96,34.66-48.79,19.72,2.95,39.38-.06,59.07-9.06,8.09-2.47,49.17,17.76,49.66,20.46,1.96,10.6-10.73,36.94-15.8,47.38l2.06,8c-9.76,15.7-24.47,27.91-37.8,40.69-10.28,9.96-20.72,14.84-31.96,29.1-13.78,17.44-16.41,29.55-26.18,46.54-8.45,14.74-16.86,29.36-26.14,43.62-5.11,7.81-15.55,15.96-20.88,27.08-25.76,53.73,9.44,100.02,65.43,65.49,5.75-3.53,8.09-9.28,10.66-11.14,5.2-3.69,24.12-19.4,26.21-20.36,8.54-3.95,31.32-5.37,40.66-2.89,30.19,7.93,69.7,50.3,81.39,78.5,1.35,3.34,5.65,16.51,5.81,17.47.87,5.81.8,20.24,0,26.18ZM793.81,2994.66c-2.28.71-3.18-.35-2.92-2.89,5.3-4.92,13.71-21.87,5.85-26.18,3.34-20.49,3.28-26.27,0-46.54,9.35-6.33-.35-37.87-11.66-37.8-18.66-39.89-54.31-78.24-98.83-87.23-21.33-4.3-35.04-5.78-55.21,2.89-15.83,6.81-20.3,14.87-31.99,23.29-2.86,2.06-8.74,2.7-11.59,5.81-.74-.93,4.79-13.14,5.78-14.55,9.73-13.55,21.78-24.06,31.99-40.73,9.64-15.7,14.77-32.12,23.25-46.51,3.92-6.68,14.81-20.81,20.33-26.18,15.35-14.9,30.83-21.68,46.51-40.73l8.35-1.12c22.16-32.73,37.13-69.28,44.9-109.65,4.72,2.44,9.28,5.43,13.65,8.99-14.71-2.99-7,16.83-2.99,25.28,14.68,27.17,23.99,44.42,24.57,75.99-9.31,62.05,5.27,107.66,36.74,159.69,10.57,22.13,4.18,44.2-3.28,66.29-16.38,37.35-30.83,74.64-43.46,111.87ZM703.72,3430.9c-16.7-10.47-31.09-19.46-46.54-31.99l-29.81-18.5-5.07,3.95c-16.96-12.62-39.7-15.71-58.1-26.15-6.13.61-12.91-1.8-17.73,4.08-6.23,7.52.39,12.56.29,16.25,17.76,9.92,35.14,21.07,52.29,31.99-3.05,7.87-1.93,8.45,5.85,5.81,7.1,15.22,29.65,27.3,46.51,26.18-2.47,1.61-2.67,2.63,0,2.92-2.79,9.47,30.22,23.51,39.63,26.75-1.09.13-2.02.84-1.83,2.31-9.28-4.85-26.5-3.53-37.8-2.89,2.86-5.4,1.12-7.23-2.92-2.92.71-9.28-12.56-11.98-14.55-2.89-4.01.58-7.9.58-11.63,0,.32-9.03-4.18-10.82-11.59-5.81-1.25-4.78-7.71-4.21-11.66-2.92-1.99-4.27-9.83-9.51-14.52-8.74-.74-4.53-2.92-6.42-5.81-2.89,2.15-3.12.22-6.04-5.81-8.74-1.54-8.99-32.18-41.34-38.38-41.43-1.7-.03-3.44.29-5.17.74,2.67-1,2.67-1.96,0-2.92l3.34-5.72c-2.41-9.09-40.08-36.23-50.04-41.27l-5.65,3.37c-1.51-8.16-8.29-13.78-20.3-16.86-10.57-5.17-34.43-14.65-43.65-9.31-2.83-10.37-16.61-16.89-26.18-11.63-8.96-8.25-15.77-10.18-20.33-5.81l-1.41-7.52c-3.89-3.92-41.79-32.95-44.48-32.31-1.25.32-2.41,1.09-3.5,2.02l.9-7.39-34.08-41.69-7.48-.39c-.13-15.13-14.93-35.52-29.1-40.69,5.69-3.69,4.88-7.52,1.67-12.59-6.36-9.99-13.2-19.91-20.46-29.26-1.41-1.83-3.5-3.15-5.78-4.43-2.31-1.32-4.85-2.31-7.42-3.18,2.25-.45,3.6-1.06,4.14-1.77,11.98,9.28,36.42,14.77,48.18,10.5,1.12,9.28,27.75,23.64,34.88,17.44,6.36,13.3,28.97,30,42.81,38.13l9.51-.32c8.9,17.67,35.52,39.6,55.21,40.73,5.46,14.45,31.7,26.88,46.51,23.25,6.2,13.3,38.83,26.43,52.32,20.36.87,1.77,1.77,3.47,2.99,4.91,4.95,5.94,56.4,17.22,66.77,12.56,6.71,8.7,16.86,15.09,30.38,19.11,11.37,8.54,22.55,12.85,33.6,12.88l-.13,6.97,36.94,29.42,6.75-1.51c-5.36,6.42,1.28,16.28,8.77,11.63.42,13.68,15.8,36.81,29.04,40.73-2.06,12.65,9.92,27.3,20.43,37.96-11.43-10.7-27.3-22.39-40.76-20.52ZM1700.65,3494.88l2.38,6.75c13.62,5.72,27.37,9.31,41.21,10.7-.13,2.38,1.86,4.34,5.81,5.85,1.16,7.32,7.03,13.55,17.67,18.6,7.77,9.64,15.38,14.1,23.03,13.39-2.18,6.81,1.25,13.14,10.34,18.98l-1.64,4.27-6.58.39c-16.64-5.75-24.12-3.92-22.48,5.43l-2.86-5.85c-15.06-.8-30.38-3.31-44.16-9.51l-5.3,3.73.84-6.71c-7-1.8-3.37-3.44,10.82-4.92.32.13.64.26,1.03.39,0,0,0,.03.03.03.06.03.13.06.19.1,4.43,1.96,10.73,6.14,13.26-.51,8.67-2.73,5.78-9.51-8.7-20.36-2.54-16.19-26.05-21.74-40.69-23.29,2.47-1.09,2.54-2.06,0-2.89-.77-5.23-4.95-9.03-12.56-11.4,7.74,1.73,13.84.71,18.37-3.15ZM1837.25,3259.32c-9.76-4.17-24.47,10.5-20.36,20.36-6.62-1.83-12.49,2.06-17.79,11.66l-22.61,43.36c-6.39,7.74-11.31,15.58-14.81,23.51l-4.43-5.27c-51.94,2.38-100.82-19.24-145.14-44.84-1.83-1.06-2.02-3.02-1.57-5.17,10.18-9.22,18.95-16.19,29.07-26.18,32.31-31.67,61.89-65.94,111.55-64.24h.06c1.54.03,3.08.13,4.66.26,1.89,6.81,21.65,15.87,26.18,8.74,3.34,1.32,8.83,6.58,14.52,8.74,4.82,15.38,47.7,15.67,55.21,2.89l2.12,5.01c-14.77,6-20.27,13.07-16.64,21.17ZM1683.21,3029.58l7.16,2.67c11.05-9.57,22.9-16.25,35.56-20.01,12.21,15.8,24.86,31.38,37.84,46.73,12.65,11.27,40.34,16.67,53.06,5.81-6.01,10.28-5.33,38.12,3.02,41.85-13.33,6.87,5.43,28.1,13.04,35.97,7.77,8.09,35.49,31.67,42.17,17.83.74.35,5.33,3.02,5.46,3.31,1.38,2.89-5.4,25.89-8.35,28.68-19.75-8.16-37.64,6.46-58.14,2.92.58-5.85-65.78-26.4-75.64-20.36,4.59-27.3,1.7-62.6-23.41-79.78-8.42-5.75-13.46-4.69-20.14-7.45-3.47-1.45-7.61-4.05-11.63-5.81l-14.58-47.95c.26-2.34,11.18-2.83,14.58-4.4ZM1529.17,3145.91c4.75-.35,8.42-2.12,8.54-6.84-4.37-23.16,1.93-40.12,18.89-50.88l-1.28-6.26c8.19,5.46,37.77-7,37.77-17.47,7.68,1.93,16.03-1.45,25.08-10.15,7.52-.61,12.78-3.02,15.61-7.29-1.51,4.75,4.66,42.24,7.55,43.3,1.22.48,2.67.48,4.08.32,5.3,19.18,14,27.3,31.99,34.91,6.33,2.7,12.88,2.73,19.21,5.65,14.23,6.59,17.28,31.86,20.52,45.42-.58,3.47-7.68,5.65-10.7,7.1-50.33,24.09-51.45,36.26-87.17,72.68-5.24,5.36-18.82,19.91-23.25,23.29l-5.69-3.28c-10.63,7.9-20.33,10.92-29.16,9.09,15.03-2.02,10.12-27.91,6.36-39.44-3.95-12.27-19.21-41.79-32.57-39.09l3.37-5.85c-4.05-12.59-5.14-25.85-3.34-39.83l-5.81-3.76c-.06-3.89,0-7.77,0-11.63ZM1323.8,3083.25c.19-68,7.03-132.62,30.99-196.18,4.56-7.26,7.48-11.15,8.67-11.63l6.84-1.06,19.3-36.33-2.89-6.23c4.05-1.19,8.16-2.7,11.11-5.78,11.27-11.59,79.75-91.7,81.23-97.9.51-2.22.64-4.53.67-6.84,7.71.55,13.52-6.23,17.44-20.36-3.63,22.45-8.03,44.39-11.63,66.9-1.67,10.5-4.56,21.29-5.81,31.99-5.97,51.9-1.96,101.08-5.81,151.21-1.45,19.08-7.07,43.1-12.46,61.7-12.17,42.08-36.42,79.53-60.16,115.69-1.03-4.05-2.18-5.33-2.95-11.63,4.88-3.15,2.83-11.95,2.95-17.44.06-5.81,0-11.63,0-17.44,6.36-13.39,1.32-30.32,3.12-44.84.77-6.23,4.01-10.86,5.56-16.25-5.33-3.28-2.18-12.08-2.86-17.44.06-.67.19-1.38.29-2.05,4.34-24.57,15.9-49.27,15.77-73.65-2.89-3.37-3.5-3.47-7.42-1.45-6.71,3.47-23.03,39.19-26.11,48.08-1.61,4.59-1.8,7.77-2.92,11.63-11.18,11.95-9.86,38.22-8.7,55.24h-2.89c2.22-1.96,2.28-4.05,0-5.81-4.34,7.32-4.21,25.92-2.92,34.91l-11.63,69.79c-2.38.32-17.31,37.1-20.36,43.62-9.51,4.85-15.32,14.55-17.41,29.07-.35-5.97-.51-11.88-.55-17.83-.13-24.25,1.83-48.34,3.44-72.33-7.84-8.74,2.06-26.15-5.81-34.88l3.92-4.5ZM1447.78,2340.34c7.81,3.53,17.34-8.25,11.66-14.55,10.05,2.95,33.76-12.75,34.82-23.25,8.03,5.17,31.06-4.88,31.99-14.55,23.13.8,56.66-9.6,72.65-26.18,17.28,2.89,45.77-11.63,55.24-26.18l7.77,2.76,44.32-21.55,3.12-7.39c9.25,2.92,19.24,2.15,30-2.28,59.93-11.02,122.18-7.71,182.72-4.05.84.06,1.61,1.54,2.38,3.44-30.61,16.35-54.79,39.12-84.31,58.14-4.59,1.7-9.99,4.08-11.6,8.74-18.21,6.1-36.81,11.5-55.89,16.16l-5.14,7.1-7.45-5.65c-60.67,1.8-115.24,23.19-166.95,53.16-12.85,3.34-22.52,8.83-29.1,16.48l-5.2-4.95c-12.04.42-23.74,2.06-35.46,4.95-6.42-6.01-16.38-8-29.81-5.91-9.67-2.57-17.18-1.54-22.52,3.02h-5.81c-19.11.48-24.92-5.33-17.44-17.44ZM1433.23,1907c-2.22,9.96-4.05,19.05-5.81,29.1-5.17,29.23-2.92,58.07-20.3,84.34l-33.47,34.82c-10.89-19.24-20.3-33.89-36.33-49.37l-.32-8.25c-22.48-17.89-46.09-34.27-70.76-49.05-45.48-27.75-58.04-73.33-54.06-124.4-8.03-37.07-16.57-74.07-25.57-110.97l-6.26-6.87c-.13-3.89.06-7.77,0-11.66-.03-2.89-.03-5.81,0-8.7,0-.61,2.73-5.75,2.92-11.63-1.12-12.2,4.82-23.09,5.81-34.91,1.25-15.51,1.22-39.7,0-55.24-1.93-24.7-13.3-47.83-11.63-72.72,66.1,5.72,71.85,74.84,106.06,116.37,33.79,41.02,93.21,55.95,114.12,106.83,8.8,21.39,13.2,45.51,21.07,67.64,4.08,11.53,5.78,25.92,14.49,35.59,4.11,4.56,16.06,8.45,17.09,12.69.67,2.83-13.65,37.03-15.74,44.77-1.12,4.27-.58,8.35-1.32,11.63ZM1566.72,2133.92v-.03h.19l-.19.03ZM1752.68,1697.36c11.63-1.44,20.3,40.21,21.94,50.97,2.47,30.03,3.95,59.68,4.5,88.87l-6.13,5.23c-2.51,15.61-6.62,30.87-12.3,45.74l3.89,7.19c-7.23,25.66-15.38,57.37-26.14,81.42-3.08,6.94-12.65,18.05-17.41,29.1l-6.2.29c-8.51,9.35-17.09,17.99-25.79,25.89-2.09-.35-4.08.51-5.88,1.9,1.16-1.57,2.15-3.21,2.96-4.82,8.22-7.36,17.25-13.72,23.25-23.25,5.91-9.25,10.25-18.47-.1-27.53-12.56-10.99-19.62-.19-28.97,4.27-15.22,7.23-26.18,15.48-40.69,23.25-10.05-4.21-30.32,7.36-37.77,14.55-2.5,1.09-2.54,2.06,0,2.89l-78.47,5.81c-11.47-.19-23.77,3.5-34.91,5.81-16.77,3.5-32.47,9.19-49.4,11.63,17.47-19.34,18.69-37.39,23.29-61.06,1.73-8.93,6.62-19.14,5.81-29.07-.13-2.92.13-5.85,0-8.74,4.75-2.06,2.28-8.13,2.89-11.63,5.3-29.52,19.4-56.21,29.03-84.34,11.66-14.97,16.45-35.04,29.1-52.35,15.26-20.91,25.02-28.78,49.4-37.8,15.87-5.88,33.11-9.83,49.4-14.55,27.49-7.93,37.26-9.03,63.95-23.25,9.64-5.14,18.15-13.2,26.15-17.44,10.76,3.15,22.29.16,34.62-8.99ZM1540.57,1487.4c10.08-1.7,31.7-5.65,32.18-16.64,7.8-.84,7.55-1.16,10.15,5.75,8.58,22.93,8.45,37.96,26.14,58.26,22.64,26.02,82.51,42.17,93.24,71.18,0,0,.03.03.03.06.22,1.41.64,2.86,1.22,4.37l-5.46,3.69c6.26,22,2.73,37.93-10.57,47.89l1.51,3.66c-5.07,3.4-18.5,12.08-23.22,14.55-15.64,8.03-32.6,12.85-49.46,17.44-29.23,7.97-47.21,8.25-75.58,23.25-16.09,8.54-22.42,13.27-34.88,26.18-16.73,17.34-21.87,29.39-33.44,49.59-2.63,4.66.06,7.58-7.23,2.76.1-7.26-2.99-13.91-5.78-20.36-2.86-37.58-21.78-82.96-46.76-111.07-10.95-12.27-32.63-23.19-37.55-37.26,2.31-3.5,5.75-5.85,8.7-8.7,20.33-19.69,31.77-22.71,61.03-20.36,4.69.38,12.17,2.05,17.47,2.92,2.6.42,6.81,2.09,11.6,2.89,6.26,1.03,13.43,5.17,21.84,5.75,16.41,1.16,30.06-5.17,45,.06,3.82,4.79,6.46,8.06,11.63,11.63-.74,9.64,6.3,14.49,11.63,5.81,6.04,2.99,16.48,1.93,23.25,0,.93-.64,4.11-.06,5.72-1.54,8.45-7.84,5.11-17.73,5.91-27.53-13.59-9.35-36.55-40.73-53.73-40.73h-55.21c-3.85,0-15.38-7.39-21.81-5.81.13-1.38-.06-2.28-1.48-2.89-1.19-.55-3.02.39-4.34,0-35.11-10.44-80.3-3.37-104.67,26.18-14.9,4.98-12.72,14.2-21.65,20.56-9.73,6.94-21.07-15.8-26.05-23.7-5.17-8.16-24.47-39.54-26.69-46.22-1.12-3.4-1.99-5.36.19-8.8,1.25-2.06,32.44-23.06,39.35-29.1,13.71-11.95,18.34-18.21,29.04-31.99,3.24-4.14,17.34-17.99,17.47-20.36l3.6,6.2,72.2,7.03c-8.61,12.66-8.61,27.27,5.65,35.17,8.99,5.01,76.25,2.5,89.8.22ZM1996.3,1251.62l-6.74,5.14c-16.28.67-32.86-.1-49.14,0-6.1-6.84-15.06-7-21.1,0-1.99-3.98-7.97-2.12-11.69-2.41-19.24-1.38-44.45-3.76-63.21-7.16-12.27-2.22-25.34-6.33-37.48-9.57-10.63-10.18-32.15-15.77-47.21-18.95-7.55-3.53-14.42-3.63-20.68-.19l-3.18-5.65c-10.6-3.44-21.65-5.17-32.31-5.88,4.27-1.25,7.74-3.73,7.42-7.61.1-1.06-.67-1.48-1.7-1.54,7.45-1.22,15.83-4.34,13.39-12.85,13.75.87,34.43-11.85,42.14-23.93,3.18,3.53,4.56,1.96,2.34-2.41,6.46,4.82,30.61-8.7,30.45-16.73l5.14,2.86,35.27-14.16,1.73-5.46c1.61,6.14,2.73,6.07,4.69,0,5.11-.48,8.22-2.09,9.38-4.79,3.69,1.19,11.08,1.83,11.69-2.41,10.37.06,20.78-.45,31.22-1.57l6.23-5.59c.64,1.19,1.35,2.34,2.22,3.31,1.99,2.15,37.39,1.64,43.52.93l5.78-4.24,7.93,5.98c18.76,3.05,37.13,8.22,55.15,14.36,60.29,26.6,122.08,47.05,185.39,61.31-62.95,35.59-135.28,53.03-206.62,59.23Z"/></svg>