<?xml version="1.0" encoding="UTF-8"?><svg id="a" xmlns="http://www.w3.org/2000/svg" viewBox="0 0 2391.82 3982.05"><defs><style>.b{fill:none;stroke:#000;stroke-miterlimit:10;stroke-width:17px;}</style></defs><path class="b" d="M1024.45,3980.59c-5.67-32.53-9.27-81.04,7.64-134.39,6.21-19.58,13.04-33.08,19.25-45.53,27.34-54.76,51.66-110.98,78.13-166.17,61.02-127.21,62.48-145.49,104.79-216.04,8.32-13.88,19.59-31.9,43.25-67.21,77.37-115.46,101.94-130.98,141.86-216.85,18.84-40.51,42.27-91.85,53.76-162.76,5.46-33.71-4.12-64.49,2.56-123.05,3.28-28.78,8.12-52.52,14.73-80.15,21.83-91.22,52.99-182.82,73.47-239.68-32.85,92.35-74.66,154.98-107.58,195.66-30.15,37.26-47.23,49.2-81.43,95.74-32.47,44.18-67.81,92.27-86.94,152.96-32.18,102.08,4.17,167.9-8.8,278.42-7.78,66.28-29.84,119.2-33.23,127.18,0,0,0,0,0,0-27.51,67.68-55.03,135.36-82.54,203.03,64.79-46.35,122.14-60.71,156.21-65.96,38.67-5.96,74.66-3.29,146.64,2.04,59.3,4.39,88.95,6.59,107.84,14.31,71.08,29.02,61.16,78.82,128.13,103.47,7.85,2.89,11.3,3.43,126.07,13.18,26.25,2.23,53.43,4.53,78.13,6.6-42.11-28.21-74.08-53.76-95.39-71.78-42.22-35.7-55.12-52.41-89-65.78-34.81-13.73-67.08-14.2-86.33-14.31-32.93-.19-44.52,5.42-86.94,12.11-41.07,6.48-71.77,7.5-133.16,9.55-96.01,3.21-92.59-4.63-121.67,0-128.09,20.41-203.15,173.95-217.27,202.83-17.36,35.5-42.24,98.64-45.12,184.88-.88-79.04-23.29-131.25-40.51-161.52-24.38-42.85-59.76-75.85-130.54-141.84-60.26-56.18-66.54-53.93-89.32-84.36-39.09-52.22-35.19-78.37-74.1-122.48-28.97-32.84-58.36-49.23-91.18-67.53-90.13-50.25-111.61-25.97-181.68-66.45-73.12-42.24-65.47-77.78-142.33-111.77-43.91-19.42-57.3-12.63-101.57-30.79-63.32-25.97-105.91-68.55-132.26-100.99,53.06,70.49,99.78,128.39,135.69,171.64,87.64,105.55,109.8,122.46,127.1,134.06,59.53,39.91,86.29,33.5,149.44,80.41,56.43,41.92,53.62,60.82,94.46,93.51,91.58,73.3,174.4,33.25,271.68,73.48,56.51,23.37,131.27,79.36,189.64,231.18,10.14-127.45-17.25-214.05-43.86-269.33-41.9-87.07-91.45-116.48-154.07-223.81-48.42-82.98-73.28-158.78-86.6-208.76,29.54-19.19,65.94-49.52,94.88-95.6,10.55-16.8,73.55-117.08,42.59-214.64-12.37-38.99-29.82-46.26-42.59-100.8-10.33-44.11-3.56-59.18-14.64-89.8-8.94-24.69-29.13-58.48-80.78-90.44-.54,60.68-18.21,98.1-33.94,120.89-30.09,43.6-55.25,36.82-82.41,84.78-21.23,37.49-17.27,61.8-46.96,97.5-14.66,17.63-30.11,29.14-40.71,36.03,9.11,6.18,23.29,13.71,40.71,13.81,36.8.22,49.1-32.93,78.75-39.24,46.13-9.82,116.34,49.1,130.6,119.29,13.37,65.84-27.01,119.32-43.69,141.42-14.24,18.86-39.8,52.7-83.44,66.19-39.21,12.12-55.46-3.8-94.08,12.86-38.1,16.44-37.3,38.41-63.64,41.51-47.79,5.61-91.51-61.91-93.74-65.44-24.42-38.64-11.26-53.77-36.03-82.67-26.72-31.17-48.04-20.58-74.19-51.26-25.63-30.07-28.28-67.39-29.85-89.5-2.3-32.39,5.42-35.29,17.99-110.97,10.84-65.29,7-74.6,20.19-92.79,18.19-25.1,36.92-23.13,71.12-48.32,19.81-14.59,44.62-38.15,66.41-77.48,39.9,22.77,61.19,20.5,73.33,13.83,25.76-14.16,20.83-54,47.04-62.25,15.67-4.93,21.49,8.03,49.81,6.92,20.94-.82,28.27-8.33,48.55-13.84,2.33-.63,39.61-10.32,77.14,1.33,62.22,19.31,86.04,85.09,87.42,89.08,9.39,27.21.5,29.99,9.05,68.57,11.46,51.71,31.52,65.27,42.59,100.8,14.56,46.74.18,88.63-16.42,136.97-29.94,87.2-86.13,143.82-121.05,173.28,23.48,95.38,58.56,163.69,86.6,208.76,57.85,93.01,109.91,126.03,154.07,223.81,28.21,62.46,38.68,119.2,43.12,157.29,35.17-144.28,47.9-259.14,52.84-339.32,3.29-53.47,4.2-109.12,12.82-223.73,10.85-144.31,15-130.66,12.82-158.26-4.91-62-47.9-145.27-133.67-309.26-11.95-22.84-52.35-99.76-81.42-190.19-8.48-26.39-17.74-59.35-19.47-101.7-1.71-42.12,5.47-57.91,5.52-87.51.06-33.26-8.9-81.71-52.99-142.01,34.1,27.97,136.94,119.65,171.69,277.67,26.13,118.8.85,216.38-13.8,260.93,31.45,44.67,68.86,108.4,95.85,190.6,16.71,50.89,25.71,97.58,30.54,137.05,5.32-92.61,25.64-165.59,43.01-214.34,29.96-84.08,68.31-144.31,77.3-158.18,52.62-81.19,91.57-105.08,114.81-158.01,4.1-9.34,18.59-44.34,50.27-81.73,2.34-2.76,4.02-4.64,7.38-8.41,28.24-31.63,58.51-60.08,74.21-72.42,25.84-20.31,38.91-17.98,100.04-39.79,94.39-33.67,90.58-48.98,145.51-62.52,55.74-13.74,72.9-1.24,152.42-3.01,43.83-.97,107.37-6.3,185.07-27.2-26.66,11.11-66.72,29.45-112.4,57.49-73.35,45.02-77.45,63.61-129.59,86.39-58.1,25.39-66.25,8.09-153.46,36.38-66.69,21.63-73.73,35.58-121.63,46.61-59.79,13.77-112.33,6.67-146.64-1.14-69.36,100.78-138.73,201.57-208.09,302.35,2.41-32.24,4.5-81.85.09-142.06-8.46-115.74-36.02-204.04-72.09-317.24-13.37-41.97-33.16-100.31-60.56-169.27-71.29-50.29-132.77-64.4-180.39-65.59-94.97-2.38-121.92,46.94-255.26,65.59-34.41,4.81-111.26,12.53-202.78-4.88-77.93-14.83-104.27-36.03-209.93-71.57-78.3-26.34-145.03-42-191.66-51.42,54.57,8.78,120.83,12.43,194.06,0,158.7-26.93,202.12-104.21,341.12-101.26,82.08,1.74,150.48,30.46,173.59,40.39,65.17,28.01,61.2,43.2,162.25,98.37,84.4,46.08,113.76,50,150.76,90.37,33.86,36.94,49.85,77.95,58.08,107.06-19.12-50.12-46.98-123.97-79.8-214.19-38.98-107.14-58.57-161.28-63.46-189.49-24.69-142.34,27.92-181.72-2.97-293.3-19.37-69.97-48.35-84.42-108.87-176.88-45-68.75-101.94-172.21-145.36-316.74,8.95,39.52,18.77,99.33,15.32,171.67-5.35,112.03-36.95,137.34-40.88,246.58-1.74,48.41-4.9,136.09,39.61,221.02,38.85,74.16,89.9,100.16,145.65,147.65,99.53,84.79,142.91,177.51,212.44,326.11,108.34,231.54,127.03,451.31,127.33,586.54,12.72-96.29,36.6-212.65,81.89-339.87,30.19-84.83,64.41-159.06,98.06-222.36,46.97,11.28,131.36,24.69,230.17-.17,42.6-10.72,83.03-20.89,121.79-53.64,82.45-69.68,87.95-182.94,91.36-253.39,1.94-40.02.49-104.15-22.39-181.55-16.36,22.06-43.26,52.69-83.96,77.01-82.15,49.07-130.09,18.41-185.07,61.33-26.35,20.57-45.18,75.62-81.75,184.9-38.3,114.43-47.93,164.48-70.14,165.53-19.13.9-21.24-35.79-66.37-87.69-53.71-61.77-84.94-49.15-112.14-97.09-21.56-37.99-.39-43.17-24.37-140.93-13.66-55.67-23.31-65.37-21.04-98.65,3.18-46.54,23.79-53.03,21.04-91.31-3.64-50.66-42.2-73.45-30.44-93.46,8.07-13.74,34.74-17.49,54.81-10.96,39.2,12.76,36.87,59.46,80.45,108.06,31.5,35.12,48.29,28.09,86.07,58.08,86.58,68.73,103.78,189.29,99.68,190.88-2.15.83-16.75-28.35-67.33-148.68-138.33-110.84-160.57-161.12-149.48-185.83,8.59-19.14,37.58-21.36,84.4-72.72,20.86-22.88,20.94-28.17,32.01-32.37,40.26-15.27,72.46,42.04,125.36,32.37,31.83-5.81,35.4-29.34,57.99-26.55,31.42,3.87,38.56,51.07,72.33,99.27,51.51,73.52,132.12,100.62,133.6,98.4.95-1.42-25.64-22-147.65-106.81,1.91-26.9-6.87-44.34-11.27-51.67-18.83-31.43-54.93-40.65-73.6-45.41-12.66-3.23-23.6-4.33-31.41-4.7,17.78-48.09,35.55-96.17,53.33-144.26,24.16-5.37,59.46-15.8,97.21-37.86,27.79-16.25,40.2-29.04,60.18-44.93,25.92-20.63,89.05-70.88,169.89-84.56,71.74-12.14,134.79,8.34,151.89,14.09,37.91,12.76,54.41,26.54,108.05,40.71,25.83,6.82,41.44,8.77,81.54,14.93,34.98,5.38,84.9,13.4,146.31,24.48-35.92,5.84-91.9,16.88-158.27,38.77-98.99,32.64-101.77,50.06-165.1,59.62-96.13,14.51-187.57-10.86-207.31-16.63-28.13-8.23-31.41-12-59.04-18.37-58.26-13.42-108.17-11.48-150.86-9.54-18.01.82-43.33,2.56-73.69,6.7,18.06-55.46,35.48-100.56,49.13-133.68,13.26-32.2,19.7-45.18,32.92-58.37,29.58-29.51,60.65-20.94,97.25-42.86,18.31-10.97,66.3-40.42,97.25-93.51,39.06-67.01,31.08-137.59,24.93-192.05-8.29-73.38-27.06-86.98-37.15-154.51-11.36-76,.1-141.2,12.1-185.45-24.46,78.53-55.1,135.7-78.69,173.53-31.23,50.09-47.21,61.64-74.92,111.91-42.59,77.27-57.57,145.64-60.66,160.49-23.73,113.71,13.01,136.19-10.79,254.84-4.02,20.04-17.56,59.92-44.46,138.87-27.1,79.51-50.12,144.71-66.07,189.37-35.73-4.84-71.45-9.68-107.18-14.51.17-133.18-13.76-190.07-29.39-214.62-.19-.3-.41-.63-1.13-1.76-24.97-39.1-40.83-69.15-45.53-77.8-26.74-49.23-45.4-56.04-84.27-119.31-17.9-29.13-30.07-53.95-37.05-69.01,1.49-7.7,4.13-19.12,8.96-32.41,13.48-37.11,30.89-52.71,41.69-70.87,32.03-53.82,4.93-127.28,0-140.4-23.53-62.66-71.51-93.51-86.45-102.33,4.21,14.63,7.55,35.43,0,56.61-7.77,21.8-20.72,26.14-42.95,51.44-4.21,4.79-60.82,70.18-43.45,99.3,4.9,8.22,15.57,13.34,23.71,11.43,12.33-2.89,21.49-22.51,19.9-49.68,45.98,13.98,80.8,48.38,89.4,90.77,6.96,34.33-1.93,80.43-30.72,99.15-16.35,10.63-23.43,2.24-58.68,11.92-48.27,13.26-53.43,34.08-76.79,30.69-21.32-3.09-19.83-20.84-65.28-67.84-35.23-36.43-50.57-40.72-56.14-64.87-1.9-8.24.6-4.64,1.85-53.74.69-26.98.17-37.45,2.58-57.2,2.72-22.24,4.08-33.36,10.04-41.36,13.27-17.82,29.76-10.95,41.67-28.58,10.84-16.05,3.4-30.96,14.56-37.64,7.82-4.68,14.05,1.1,27.48-.23,18.4-1.82,28.99-14.87,37.97-22.11,31.54-25.42,84.72-12.48,95.17-9.94,66.51,16.18,96.36,87.14,102.09,101.96,27.65,71.58,4.41,158.69-56.61,225.93,60.81,101.41,121.62,202.83,182.42,304.24,15.17-72.66,14.18-129.82,10.41-168.76-4.41-45.53-14.1-81.49-10.85-145.8,1.96-38.86,6.57-46.79,8.54-75.76,2.75-40.4-1.12-99.42-33.98-174.75,2.78-5.32,6.92-13.21,11.99-22.74,26.87-50.51,42.59-80.05,64.04-112.87,8.15-12.47,20.01-29.82,35.58-49.95,18.93-31.31,51.34-73.07,103.31-91.68,39.45-14.13,64.03-5.56,110.84-13.12,35.95-5.81,87.64-21.55,147.11-68.3-26.78,47.98-72.66,114.15-147.11,169.44-22.39,16.63-53.02,39.37-99.21,57.71-57.79,22.95-82.51,16.19-125.21,36.26-28.1,13.21-66.13,39.04-101.35,95.24,24.96-98.64,7.93-151.67-14.21-182.17-14.47-19.93-28.02-26.53-54.24-62.45-15.61-21.39-41.33-56.62-51.05-100.26-10.89-48.89,7.05-69.05,13.6-133.13,3.47-33.94,4.17-84.25-11.69-147.92,30.13,53.84,60.33,93.27,83.11,119.98,32.42,38.01,54.37,55.63,68.45,95.32,13,36.65,11.01,68.75,9.33,92.04-4.05,56.22-24.13,100.58-41.09,129.37"/></svg>