<?xml version="1.0" encoding="UTF-8"?><svg id="uuid-02596936-c54c-4296-92d1-917b725e7491" xmlns="http://www.w3.org/2000/svg" viewBox="0 0 457.32 343.89"><defs><style>.uuid-61b971df-a0b6-47fb-aa75-07cc79729cd3{ fill: none; stroke: #D3C3E0; stroke-width: 30px; }</style></defs><path class="uuid-61b971df-a0b6-47fb-aa75-07cc79729cd3" d="M53.06,76.02c4.6,7.43,12.3,17.93,24.76,28.12,12.82,10.49,24.96,15.98,42.4,23.73,15.51,6.89,28.88,12.83,47.57,17.58,39.27,9.97,73.37,7.39,89.96,5.27,15.89-2.02,38.28-5.07,63.08-17.58,9.36-4.72,18.8-11.84,18.8-11.84,8.41-5.92,14.31-10.97,17.39-13.64,33.38-29,50.07-43.51,51.7-56.25,1.93-15.06-7.06-31.13-20.68-40.43C360.78-7.61,313.6,0,299.11,21.53c-12.58,18.68,2.59,43.23,10.34,55.78,26.08,42.22,81.92,67.64,91,71.65,8.44,3.73,26.92,11.3,43.43,27.73,6.28,6.25,11.85,11.8,15.51,20.61,11.34,27.29-9.12,53.63-13.44,58.88-4.59,5.58-9.8,11.92-19.65,16.7-17.61,8.56-37.52,6.05-50.67,4.39-9.39-1.18-10.06-2.19-21.71-4.39-16.75-3.16-24.62-2.83-53.77-4.39-36.12-1.94-54.26-1.74-65.15,0-10.63,1.7-27.74,4.57-45.92,14.22-13.01,6.91-12.46,9.8-29.57,20.93-10.22,6.65-24.89,15.87-45.5,22.85-14.21,4.81-33.63,11.14-55.84,6.15-6.81-1.53-20.54-4.61-29.99-15.66-8.33-9.74-10.4-22.26-7.24-32.67,4.97-16.4,21.95-24.42,37.23-31.64,26.39-12.46,52.55-12.95,65.15-13.18,9.43-.17,16.81.4,22.75.88,18.38,1.48,25.13,3.89,52.74,8.79,21.55,3.83,32.53,5.74,42.34,5.58,14.64-.23,25.47-2.76,36.84-5.43,17.83-4.17,28.67-6.83,38.81-15.03,6.14-4.97,14.11-11.41,13.33-18.52-2-18.26-60.1-26.58-70.32-28.12-13.8-2.08-47.36-6.82-85.83,2.64-16.21,3.98-18.44,6.84-35.16,9.67-9.55,1.62-32.48,4.69-61.01,0-6.85-1.13-31.51-5.57-58.28-20.21-8.3-4.54-14.78-8.95-19.28-12.26" /></svg>