<?xml version="1.0" encoding="UTF-8"?><svg id="uuid-02596936-c54c-4296-92d1-917b725e7491" xmlns="http://www.w3.org/2000/svg" viewBox="0 0 457.32 343.89"><defs><style>.uuid-61b971df-a0b6-47fb-aa75-07cc79729cd3{ fill: none; stroke: #D3C3E0; stroke-width: 30px; }</style></defs><path class="uuid-61b971df-a0b6-47fb-aa75-07cc79729cd3" d="M65.5,7.47c-7.45,2.71-36.48,14.24-53.58,45.96-1.65,3.06-20.72,39.83-5.68,80.3,8.72,23.47,24.5,36.32,44.65,52.72,15.18,12.36,31.55,25.69,57.64,32.44,36.68,9.5,67.04-.6,76.31-4.06,16.92-6.32,26.91-14.27,44.65-28.39,37.12-29.55,64.81-51.58,60.88-76.25-4.14-26-40.66-37.65-42.21-38.12-22.83-6.96-55.82-3.61-71.44,19.47-17.18,25.39-1.8,57.58,3.25,68.13,2.47,5.16,19.97,40.39,56.82,48.67,15,3.37,31.92-1.81,65.75-12.17,41.9-12.83,49.1-22.69,51.95-27.58,5.41-9.26,5.23-18.61,4.87-37.31-.58-30.46-7.83-38.04-8.12-64.08-.22-19.61-.38-34.03,8.18-45.42,19.23-25.61,79.57-31.64,104.66,1.62,16.94,22.46,13.38,56.96-1.62,77.06-16.13,21.61-36.16,14.09-56.01,38.12-12.29,14.88-24.36,41.67-14.61,62.46,14.66,31.27,68.82,27.94,74.68,27.58,44.19-2.72,73.2-32.39,81.99-42.18" /></svg>