<?xml version="1.0" encoding="UTF-8"?><svg id="uuid-3d061462-22ae-41be-a308-b8ba08e31485" xmlns="http://www.w3.org/2000/svg" viewBox="0 0 182.99 735.29"><defs><style>.uuid-c6e90a8f-2401-4db7-9165-cd50a2f6d40e{fill:none;stroke:#242424;stroke-linecap:round;stroke-linejoin:round;stroke-width:26.63px;}</style></defs><path class="uuid-c6e90a8f-2401-4db7-9165-cd50a2f6d40e" d="M124.29,13.31C64.78,78.76,38.74,140.58,26.79,176.72c-16.22,49.04-15.32,77.44-10.09,99.76,3.02,12.87,12.38,44.6,40.35,68.8,12.5,10.81,32.72,28.31,55.09,22.38,23.08-6.12,32.3-32.88,34.01-37.86,5.95-17.29,8.7-48.13-8.41-60.2-16.72-11.79-43.2.82-56.4,10.32-38.54,27.74-41.36,84.73-42.78,113.52-1.7,34.27,3.99,59.51,13.45,101.48,4.04,17.92,10.27,42.32,30.01,99.76,11.23,32.66,26.87,76.14,47.32,127.28q13.45-37.27,40.35-111.8-26.9,74.54-40.35,111.8h0q-34.74-17.77-104.23-53.32,69.48,35.55,104.23,53.32"/></svg>