<?xml version="1.0" encoding="UTF-8"?><svg id="uuid-bd68c510-eb66-45d8-b3f8-38e123b979b6" xmlns="http://www.w3.org/2000/svg" viewBox="0 0 249.45 281.58"><defs><style>.uuid-f4132883-dd2f-4cb9-8b62-8763b6034b19{fill:#2b2a2a;}</style></defs><path class="uuid-f4132883-dd2f-4cb9-8b62-8763b6034b19" d="M178.19,0l6.12,6.07c3.18,36.38.51,73.65,1.39,110.32h55.33c3.3,0,12.55,15.03,6.32,19.47l-116.14,142.81c-3.77,3.04-8.21,3.94-12.54,1.51C77.15,233.88,41.17,182.07,0,135.16v-11.26c3.09-3.04,3.75-6.54,8.47-7.48,8.02-1.61,51.55,1.88,53.44-.01l-.05-102.36c-.22-6.1,4.53-9.49,7.54-14.04h108.79ZM159.43,26.28h-71.28v116.39h-45.02l81.59,105.09,81.59-105.09h-46.89V26.28Z"/></svg>