<svg width="38" height="25" viewBox="0 0 38 25" fill="none" xmlns="http://www.w3.org/2000/svg">
<path d="M8.0625 8.1V16.9M5.875 1.5H29.9375C31.0978 1.5 32.2106 1.96357 33.0311 2.78873C33.8516 3.61389 34.3125 4.73305 34.3125 5.9V7C34.3125 7.29174 34.4277 7.57153 34.6329 7.77782C34.838 7.98411 35.1162 8.1 35.4062 8.1C35.6963 8.1 35.9745 8.21589 36.1796 8.42218C36.3848 8.62847 36.5 8.90826 36.5 9.2V15.8C36.5 16.0917 36.3848 16.3715 36.1796 16.5778C35.9745 16.7841 35.6963 16.9 35.4062 16.9C35.1162 16.9 34.838 17.0159 34.6329 17.2222C34.4277 17.4285 34.3125 17.7083 34.3125 18V19.1C34.3125 20.267 33.8516 21.3861 33.0311 22.2113C32.2106 23.0364 31.0978 23.5 29.9375 23.5H5.875C4.71468 23.5 3.60188 23.0364 2.78141 22.2113C1.96094 21.3861 1.5 20.267 1.5 19.1V5.9C1.5 4.73305 1.96094 3.61389 2.78141 2.78873C3.60188 1.96357 4.71468 1.5 5.875 1.5Z" stroke="#242424" stroke-width="3" stroke-linecap="round" stroke-linejoin="round"/>
</svg>
