<?xml version="1.0" encoding="UTF-8"?><svg id="uuid-edc93a1a-6786-40d2-9d43-f504b5b49748" xmlns="http://www.w3.org/2000/svg" viewBox="0 0 272.77 281.41"><defs><style>.uuid-b46c7970-c13c-4dc3-8a76-9cb0be9de51c{fill:#2f2e2e;}</style></defs><path class="uuid-b46c7970-c13c-4dc3-8a76-9cb0be9de51c" d="M33.47,0c64.76,28.08,141.91,27.77,206.84,0h31.03c-3.33,41.31,4.48,89.56,0,130-16.03,144.77-174.65,219.67-247.47,68.15C1.24,151.05-3.69,71.11,2.39,19.44,3.61,9.1,7.64,5.97,15.37,0h18.1ZM248.07,23.4c-73.46,26.01-148.89,26.35-222.35,0v100.1c0,53.98,51.18,134.81,110.32,135.49,60.22.7,112.03-80.92,112.03-135.49V23.4Z"/><path class="uuid-b46c7970-c13c-4dc3-8a76-9cb0be9de51c" d="M93.32,212.82c-11.4-18.34,29.8-30.36,42.56-30.53,10.16-.14,43.02,8.59,45.02,19.24,5.53,29.38-29.24,3.98-42.72,3.66-12.49-.3-38.98,17.1-44.86,7.63Z"/><path class="uuid-b46c7970-c13c-4dc3-8a76-9cb0be9de51c" d="M37.83,132.31c-11.4-18.34,29.8-30.36,42.56-30.53,10.16-.14,43.02,8.59,45.02,19.24,5.53,29.38-29.24,3.98-42.72,3.66-12.49-.3-38.98,17.1-44.86,7.63Z"/><path class="uuid-b46c7970-c13c-4dc3-8a76-9cb0be9de51c" d="M145.1,132.31c-11.4-18.34,29.8-30.36,42.56-30.53,10.16-.14,43.02,8.59,45.02,19.24,5.53,29.38-29.24,3.98-42.72,3.66-12.49-.3-38.98,17.1-44.86,7.63Z"/></svg>