<svg width="31" height="30" viewBox="0 0 31 30" fill="none" xmlns="http://www.w3.org/2000/svg">
<path d="M20.2456 4.72659C20.4216 4.89646 20.6413 5.01799 20.8822 5.07867C21.1231 5.13934 21.3765 5.13695 21.6161 5.07175C21.8557 5.00655 22.073 4.8809 22.2455 4.70775C22.418 4.5346 22.5395 4.32021 22.5974 4.0867C22.7427 3.50336 23.0466 2.96793 23.4779 2.53553C23.9091 2.10313 24.4521 1.7894 25.0509 1.62664C25.6496 1.46389 26.2826 1.45799 26.8845 1.60956C27.4864 1.76113 28.0355 2.06469 28.4754 2.48898C28.9152 2.91326 29.2298 3.44293 29.3868 4.02345C29.5437 4.60397 29.5374 5.21434 29.3684 5.79172C29.1995 6.3691 28.874 6.8926 28.4254 7.30833C27.9769 7.72405 27.4216 8.01697 26.8166 8.15691C26.5745 8.2128 26.3522 8.32995 26.1726 8.4963C25.9931 8.66264 25.8628 8.87216 25.7952 9.10324C25.7276 9.33433 25.7251 9.57863 25.788 9.81095C25.8509 10.0433 25.977 10.2552 26.1531 10.4249L28.5091 12.6956C28.8229 12.9982 29.0719 13.3574 29.2417 13.7528C29.4115 14.1482 29.4989 14.572 29.4989 15C29.4989 15.428 29.4115 15.8518 29.2417 16.2472C29.0719 16.6426 28.8229 17.0018 28.5091 17.3044L26.1531 19.5765C25.9771 19.7463 25.7574 19.8679 25.5165 19.9285C25.2756 19.9892 25.0222 19.9868 24.7826 19.9216C24.543 19.8564 24.3257 19.7308 24.1532 19.5576C23.9807 19.3845 23.8593 19.1701 23.8013 18.9366C23.656 18.3532 23.3521 17.8178 22.9208 17.3854C22.4896 16.953 21.9466 16.6393 21.3479 16.4765C20.7491 16.3138 20.1161 16.3079 19.5142 16.4594C18.9123 16.611 18.3632 16.9146 17.9233 17.3388C17.4835 17.7631 17.1689 18.2928 17.0119 18.8733C16.855 19.4538 16.8613 20.0642 17.0303 20.6416C17.1992 21.219 17.5247 21.7425 17.9733 22.1582C18.4218 22.5739 18.9771 22.8668 19.5821 23.0068C19.8242 23.0627 20.0465 23.1798 20.2261 23.3462C20.4056 23.5125 20.5359 23.722 20.6035 23.9531C20.6711 24.1842 20.6736 24.4285 20.6107 24.6608C20.5478 24.8931 20.4217 25.1051 20.2456 25.2748L17.8896 27.5454C17.5758 27.8481 17.2033 28.0881 16.7932 28.2519C16.3832 28.4157 15.9438 28.5 15.5 28.5C15.0562 28.5 14.6168 28.4157 14.2068 28.2519C13.7967 28.0881 13.4242 27.8481 13.1104 27.5454L10.7544 25.2734C10.5784 25.1035 10.3587 24.982 10.1178 24.9213C9.87686 24.8607 9.62353 24.863 9.38391 24.9282C9.14428 24.9934 8.92702 25.1191 8.75453 25.2923C8.58203 25.4654 8.46055 25.6798 8.4026 25.9133C8.25728 26.4966 7.95336 27.0321 7.52212 27.4645C7.09088 27.8969 6.54792 28.2106 5.94914 28.3734C5.35037 28.5361 4.71744 28.542 4.11552 28.3904C3.5136 28.2389 2.96445 27.9353 2.52463 27.511C2.08481 27.0867 1.77022 26.5571 1.61324 25.9765C1.45627 25.396 1.46259 24.7857 1.63156 24.2083C1.80053 23.6309 2.12604 23.1074 2.57456 22.6917C3.02308 22.2759 3.57841 21.983 4.18335 21.8431C4.4255 21.7872 4.6478 21.6701 4.82735 21.5037C5.00691 21.3374 5.1372 21.1278 5.20481 20.8968C5.27242 20.6657 5.2749 20.4214 5.21198 20.1891C5.14907 19.9567 5.02304 19.7448 4.84689 19.5751L2.49089 17.3044C2.17708 17.0018 1.92814 16.6426 1.7583 16.2472C1.58847 15.8518 1.50105 15.428 1.50105 15C1.50105 14.572 1.58847 14.1482 1.7583 13.7528C1.92814 13.3574 2.17708 12.9982 2.49089 12.6956L4.84689 10.4235C5.02286 10.2537 5.24263 10.1321 5.48353 10.0715C5.72443 10.0108 5.97776 10.0132 6.21739 10.0784C6.45702 10.1436 6.67428 10.2692 6.84677 10.4424C7.01926 10.6155 7.14075 10.8299 7.1987 11.0634C7.34401 11.6468 7.64794 12.1822 8.07918 12.6146C8.51042 13.047 9.05338 13.3607 9.65215 13.5235C10.2509 13.6862 10.8839 13.6921 11.4858 13.5406C12.0877 13.389 12.6368 13.0854 13.0767 12.6612C13.5165 12.2369 13.8311 11.7072 13.9881 11.1267C14.145 10.5462 14.1387 9.93579 13.9697 9.35841C13.8008 8.78104 13.4753 8.25753 13.0267 7.8418C12.5782 7.42608 12.0229 7.13316 11.4179 6.99322C11.1758 6.93734 10.9535 6.82018 10.7739 6.65384C10.5944 6.48749 10.4641 6.27797 10.3965 6.04689C10.3289 5.8158 10.3264 5.5715 10.3893 5.33919C10.4522 5.10687 10.5783 4.89494 10.7544 4.72524L13.1104 2.45456C13.4242 2.15193 13.7967 1.91187 14.2068 1.74808C14.6168 1.5843 15.0562 1.5 15.5 1.5C15.9438 1.5 16.3832 1.5843 16.7932 1.74808C17.2033 1.91187 17.5758 2.15193 17.8896 2.45456L20.2456 4.72659Z" stroke="#242424" stroke-width="3" stroke-linecap="round" stroke-linejoin="round"/>
</svg>
